<?xml version="1.0" encoding="UTF-8"?>
<svg xmlns="http://www.w3.org/2000/svg" xmlns:xlink="http://www.w3.org/1999/xlink" width="50pt" height="50pt" viewBox="0 0 50 50" version="1.1">
<g id="surface1">
<path style=" stroke:none;fill-rule:evenodd;fill:rgb(45.490196%,96.862745%,86.27451%);fill-opacity:1;" d="M 24.019531 8.050781 C 19.460938 8.375 15.277344 11.382812 13.5 15.625 C 10.125 23.667969 15.71875 32.53125 24.457031 32.984375 L 25 33.011719 L 25.007812 29.308594 L 25.019531 25.605469 L 24.730469 25.59375 C 22.550781 25.511719 20.605469 23.910156 20.054688 21.753906 C 19.253906 18.585938 21.625 15.460938 24.875 15.398438 L 25.019531 15.394531 L 25.007812 11.695312 L 25 7.996094 L 24.738281 8.007812 C 24.59375 8.011719 24.273438 8.03125 24.019531 8.050781 "/>
<path style=" stroke:none;fill-rule:evenodd;fill:rgb(87.058824%,98.431373%,96.078431%);fill-opacity:1;" d="M 24.03125 15.5 C 19.695312 16.414062 18.433594 21.875 21.9375 24.5625 C 22.695312 25.144531 23.65625 25.507812 24.59375 25.570312 L 25 25.59375 L 25.019531 23.105469 L 25.207031 23.09375 C 26.527344 23 27.605469 21.84375 27.59375 20.527344 C 27.578125 19.234375 26.574219 18.148438 25.265625 18.015625 L 25 17.988281 L 25 15.417969 L 24.699219 15.421875 C 24.53125 15.421875 24.234375 15.457031 24.03125 15.5 M 14.300781 35.335938 C 13.878906 35.40625 13.566406 35.652344 13.464844 35.996094 C 13.398438 36.210938 13.398438 39.453125 13.460938 39.6875 C 13.578125 40.117188 14.03125 40.355469 14.707031 40.351562 C 15.5 40.34375 15.832031 40.042969 15.867188 39.300781 L 15.882812 38.917969 L 15.332031 38.917969 L 15.332031 39.210938 C 15.332031 39.726562 15.164062 39.894531 14.644531 39.894531 C 14.03125 39.894531 13.957031 39.773438 13.957031 38.75 L 13.957031 38 L 15.875 38 L 15.875 37.078125 C 15.875 36.507812 15.855469 36.09375 15.828125 35.996094 C 15.671875 35.476562 15.058594 35.210938 14.300781 35.335938 M 23.636719 35.332031 C 23.195312 35.398438 22.859375 35.652344 22.757812 35.996094 C 22.6875 36.21875 22.6875 39.449219 22.757812 39.671875 C 23.015625 40.539062 24.695312 40.636719 25.140625 39.8125 C 25.226562 39.648438 25.230469 39.609375 25.230469 37.832031 L 25.230469 36.019531 L 25.113281 35.824219 C 24.882812 35.433594 24.28125 35.234375 23.636719 35.332031 M 34.257812 35.335938 C 33.835938 35.40625 33.523438 35.652344 33.421875 35.996094 C 33.359375 36.210938 33.355469 39.453125 33.421875 39.6875 C 33.539062 40.117188 33.988281 40.355469 34.667969 40.351562 C 35.457031 40.34375 35.789062 40.042969 35.824219 39.300781 L 35.84375 38.917969 L 35.292969 38.917969 L 35.292969 39.210938 C 35.292969 39.726562 35.121094 39.894531 34.605469 39.894531 C 33.988281 39.894531 33.917969 39.773438 33.917969 38.75 L 33.917969 38 L 35.832031 38 L 35.832031 37.078125 C 35.832031 36.507812 35.816406 36.09375 35.785156 35.996094 C 35.628906 35.476562 35.015625 35.210938 34.257812 35.335938 M 10.625 37.507812 C 10.625 38.914062 10.640625 39.660156 10.671875 39.769531 C 10.871094 40.492188 12.027344 40.578125 12.382812 39.90625 C 12.464844 39.75 12.480469 39.648438 12.492188 39.136719 L 12.507812 38.542969 L 11.957031 38.542969 L 11.957031 39.035156 C 11.957031 39.804688 11.777344 40.0625 11.382812 39.859375 C 11.171875 39.75 11.167969 39.71875 11.167969 37.726562 L 11.167969 35.875 L 11.71875 35.867188 L 12.269531 35.855469 L 12.269531 35.4375 L 11.449219 35.425781 L 10.625 35.414062 L 10.625 37.507812 M 17.125 37.507812 C 17.125 38.914062 17.140625 39.660156 17.171875 39.769531 C 17.371094 40.492188 18.527344 40.578125 18.882812 39.90625 C 18.964844 39.75 18.980469 39.648438 18.992188 39.136719 L 19.007812 38.542969 L 18.457031 38.542969 L 18.457031 39.035156 C 18.457031 39.804688 18.277344 40.0625 17.882812 39.859375 C 17.671875 39.75 17.667969 39.71875 17.667969 37.726562 L 17.667969 35.875 L 18.21875 35.867188 L 18.769531 35.855469 L 18.769531 35.4375 L 17.949219 35.425781 L 17.125 35.414062 L 17.125 37.507812 M 19.917969 37.507812 C 19.917969 38.914062 19.933594 39.660156 19.960938 39.769531 C 20.164062 40.492188 21.320312 40.578125 21.675781 39.90625 C 21.757812 39.75 21.773438 39.648438 21.785156 39.136719 L 21.800781 38.542969 L 21.25 38.542969 L 21.25 39.035156 C 21.25 39.804688 21.070312 40.0625 20.671875 39.859375 C 20.460938 39.75 20.457031 39.71875 20.457031 37.726562 L 20.457031 35.875 L 21.011719 35.867188 L 21.5625 35.855469 L 21.5625 35.4375 L 20.738281 35.425781 L 19.917969 35.414062 L 19.917969 37.507812 M 29.75 37.828125 L 29.75 40.25 L 30.492188 40.25 C 32.074219 40.25 32.101562 40.214844 32.117188 37.921875 C 32.132812 35.511719 32.097656 35.453125 30.550781 35.425781 L 29.75 35.410156 L 29.75 37.828125 M 36.75 35.429688 C 36.75 35.460938 37.734375 39.808594 37.796875 40.074219 L 37.84375 40.253906 L 38.640625 40.230469 L 38.773438 39.625 C 38.851562 39.292969 39.089844 38.226562 39.308594 37.253906 C 39.53125 36.28125 39.707031 35.472656 39.707031 35.453125 C 39.707031 35.433594 39.589844 35.417969 39.445312 35.417969 L 39.1875 35.417969 L 38.710938 37.523438 C 38.445312 38.6875 38.226562 39.617188 38.222656 39.597656 C 38.199219 39.523438 37.292969 35.460938 37.292969 35.441406 C 37.292969 35.429688 37.171875 35.417969 37.019531 35.417969 C 36.871094 35.417969 36.75 35.421875 36.75 35.429688 M 15.058594 35.855469 C 15.304688 35.972656 15.332031 36.078125 15.332031 36.851562 L 15.332031 37.542969 L 13.957031 37.542969 L 13.957031 36.851562 C 13.957031 36.082031 13.988281 35.976562 14.226562 35.855469 C 14.394531 35.773438 14.882812 35.773438 15.058594 35.855469 M 24.398438 35.851562 C 24.710938 35.984375 24.710938 35.976562 24.699219 37.882812 L 24.6875 39.578125 L 24.570312 39.703125 C 24.273438 40.011719 23.488281 39.964844 23.3125 39.625 C 23.226562 39.460938 23.21875 36.25 23.304688 36.085938 C 23.441406 35.8125 24.011719 35.691406 24.398438 35.851562 M 35.015625 35.855469 C 35.261719 35.972656 35.292969 36.078125 35.292969 36.851562 L 35.292969 37.542969 L 33.917969 37.542969 L 33.917969 36.851562 C 33.917969 36.082031 33.945312 35.976562 34.1875 35.855469 C 34.351562 35.773438 34.84375 35.773438 35.015625 35.855469 M 31.328125 35.972656 C 31.578125 36.105469 31.582031 36.164062 31.582031 37.863281 C 31.582031 39.828125 31.59375 39.808594 30.695312 39.78125 L 30.269531 39.769531 L 30.269531 35.867188 L 30.726562 35.882812 C 31.0625 35.894531 31.226562 35.917969 31.328125 35.972656 M 26 40.480469 L 26 40.710938 L 27.425781 40.699219 L 28.855469 40.6875 L 28.878906 40.25 L 26 40.25 L 26 40.480469 "/>
<path style=" stroke:none;fill-rule:evenodd;fill:rgb(58.039216%,89.411765%,89.411765%);fill-opacity:1;" d="M 24.261719 8.027344 C 24.300781 8.039062 24.367188 8.039062 24.40625 8.027344 C 24.445312 8.019531 24.414062 8.007812 24.332031 8.007812 C 24.253906 8.007812 24.21875 8.019531 24.261719 8.027344 M 25.65625 8.03125 C 25.710938 8.039062 25.78125 8.039062 25.824219 8.027344 C 25.863281 8.019531 25.820312 8.007812 25.730469 8.011719 C 25.636719 8.011719 25.605469 8.019531 25.65625 8.03125 M 16.457031 11.363281 L 16.3125 11.519531 L 16.46875 11.375 C 16.554688 11.296875 16.625 11.226562 16.625 11.21875 C 16.625 11.1875 16.589844 11.21875 16.457031 11.363281 M 33.417969 11.261719 C 33.417969 11.269531 33.476562 11.332031 33.550781 11.398438 L 33.6875 11.519531 L 33.566406 11.386719 C 33.453125 11.257812 33.417969 11.230469 33.417969 11.261719 M 15.894531 11.925781 L 15.6875 12.144531 L 15.90625 11.9375 C 16.027344 11.824219 16.125 11.726562 16.125 11.71875 C 16.125 11.6875 16.085938 11.722656 15.894531 11.925781 M 34.082031 11.9375 C 34.160156 12.015625 34.234375 12.082031 34.246094 12.082031 C 34.257812 12.082031 34.203125 12.015625 34.125 11.9375 C 34.046875 11.859375 33.976562 11.792969 33.960938 11.792969 C 33.953125 11.792969 34.007812 11.859375 34.082031 11.9375 M 24.949219 15.40625 C 24.988281 15.417969 25 15.71875 25 16.707031 L 25 17.988281 L 25.265625 18.015625 C 26.574219 18.148438 27.578125 19.234375 27.59375 20.527344 C 27.605469 21.84375 26.527344 23 25.207031 23.09375 L 25.019531 23.105469 L 25.007812 24.332031 C 25 25.25 24.984375 25.566406 24.945312 25.59375 C 24.914062 25.613281 24.9375 25.621094 25 25.609375 C 25.058594 25.597656 25.253906 25.578125 25.4375 25.5625 C 28.648438 25.320312 30.828125 22.0625 29.851562 18.953125 C 29.277344 17.128906 27.652344 15.738281 25.796875 15.484375 C 25.320312 15.417969 24.863281 15.375 24.949219 15.40625 M 12.511719 19.75 C 12.511719 19.851562 12.519531 19.894531 12.53125 19.84375 C 12.539062 19.792969 12.539062 19.707031 12.53125 19.65625 C 12.519531 19.605469 12.511719 19.648438 12.511719 19.75 M 37.46875 19.75 C 37.46875 19.828125 37.476562 19.863281 37.488281 19.824219 C 37.496094 19.78125 37.496094 19.71875 37.488281 19.675781 C 37.476562 19.636719 37.46875 19.671875 37.46875 19.75 M 12.511719 21.207031 C 12.511719 21.3125 12.519531 21.351562 12.53125 21.300781 C 12.539062 21.25 12.539062 21.164062 12.53125 21.113281 C 12.519531 21.0625 12.511719 21.105469 12.511719 21.207031 M 37.46875 21.207031 C 37.46875 21.289062 37.476562 21.320312 37.488281 21.28125 C 37.496094 21.242188 37.496094 21.175781 37.488281 21.136719 C 37.476562 21.09375 37.46875 21.128906 37.46875 21.207031 M 15.8125 29 C 15.902344 29.09375 15.984375 29.167969 15.996094 29.167969 C 16.007812 29.167969 15.945312 29.09375 15.855469 29 C 15.765625 28.90625 15.679688 28.832031 15.671875 28.832031 C 15.660156 28.832031 15.722656 28.90625 15.8125 29 M 16.292969 29.472656 C 16.292969 29.476562 16.351562 29.539062 16.425781 29.605469 L 16.5625 29.730469 L 16.441406 29.59375 C 16.328125 29.46875 16.292969 29.4375 16.292969 29.472656 M 24.09375 32.988281 C 24.132812 32.996094 24.199219 32.996094 24.238281 32.988281 C 24.28125 32.976562 24.246094 32.96875 24.167969 32.96875 C 24.085938 32.96875 24.054688 32.976562 24.09375 32.988281 M 25.65625 32.988281 C 25.710938 33 25.78125 32.996094 25.824219 32.988281 C 25.863281 32.976562 25.820312 32.96875 25.730469 32.96875 C 25.636719 32.96875 25.605469 32.976562 25.65625 32.988281 M 29.726562 37.832031 C 29.726562 39.171875 29.734375 39.722656 29.738281 39.050781 C 29.746094 38.382812 29.746094 37.285156 29.738281 36.613281 C 29.734375 35.945312 29.726562 36.492188 29.726562 37.832031 "/>
<path style=" stroke:none;fill-rule:evenodd;fill:rgb(17.254902%,76.862745%,80%);fill-opacity:1;" d="M 25.007812 11.691406 L 25.019531 15.390625 L 25.191406 15.398438 C 25.40625 15.40625 25.820312 15.453125 25.957031 15.480469 C 26.015625 15.492188 26.109375 15.507812 26.167969 15.519531 C 27.953125 15.851562 29.726562 17.703125 30.015625 19.542969 C 30.082031 19.976562 30.09375 20.140625 30.09375 20.507812 C 30.074219 23.289062 28.015625 25.410156 25.167969 25.597656 L 25.019531 25.605469 L 25 33.007812 L 25.488281 32.984375 C 29.375 32.773438 32.765625 30.992188 35.003906 27.976562 C 40.984375 19.914062 35.582031 8.527344 25.53125 8.019531 L 25 7.992188 L 25.007812 11.691406 "/>
</g>
</svg>
