<svg id="svg" version="1.1" xmlns="http://www.w3.org/2000/svg" xmlns:xlink="http://www.w3.org/1999/xlink" width="400" height="376.4350453172205" viewBox="0, 0, 400,376.4350453172205"><g id="svgg"><path id="path0" d="M198.117 7.910 C 198.117 8.139,196.422 8.286,193.785 8.286 C 190.938 8.286,189.454 8.425,189.454 8.693 C 189.454 8.970,188.438 9.024,186.252 8.862 C 184.117 8.704,183.051 8.757,183.051 9.021 C 183.051 9.244,182.232 9.416,181.168 9.416 C 180.132 9.416,179.284 9.566,179.284 9.748 C 179.284 9.931,177.674 10.201,175.706 10.348 C 173.738 10.496,172.128 10.770,172.128 10.958 C 172.128 11.146,171.450 11.299,170.621 11.299 C 169.793 11.299,169.115 11.469,169.115 11.676 C 169.115 11.883,168.861 12.053,168.550 12.053 C 168.239 12.053,167.985 11.913,167.985 11.741 C 167.985 11.570,167.478 11.504,166.859 11.595 C 166.239 11.686,165.819 11.900,165.924 12.070 C 166.029 12.240,165.570 12.364,164.904 12.345 C 164.238 12.326,163.628 12.507,163.548 12.747 C 163.468 12.986,162.908 13.183,162.304 13.183 C 161.700 13.183,161.205 13.342,161.205 13.536 C 161.205 13.732,160.593 13.789,159.828 13.665 C 158.839 13.505,158.527 13.564,158.721 13.877 C 158.905 14.176,158.568 14.313,157.649 14.313 C 156.912 14.313,156.309 14.502,156.309 14.733 C 156.309 14.979,155.917 15.079,155.367 14.974 C 154.849 14.875,154.426 14.940,154.426 15.118 C 154.426 15.297,153.917 15.443,153.296 15.443 C 152.674 15.443,152.166 15.612,152.166 15.819 C 152.166 16.026,151.742 16.196,151.224 16.196 C 150.706 16.196,150.282 16.360,150.282 16.561 C 150.282 16.761,150.028 16.828,149.718 16.709 C 149.407 16.589,149.153 16.680,149.153 16.909 C 149.153 17.138,148.729 17.326,148.211 17.326 C 147.693 17.326,147.269 17.514,147.269 17.743 C 147.269 18.001,146.908 18.070,146.328 17.924 C 145.785 17.788,145.386 17.851,145.386 18.072 C 145.386 18.283,144.962 18.456,144.444 18.456 C 143.927 18.456,143.503 18.610,143.503 18.799 C 143.503 18.988,142.825 19.257,141.996 19.397 C 141.168 19.537,140.490 19.806,140.490 19.995 C 140.490 20.184,140.066 20.339,139.548 20.339 C 139.030 20.339,138.606 20.528,138.606 20.760 C 138.606 20.995,138.274 21.093,137.853 20.983 C 137.439 20.875,137.100 20.940,137.100 21.128 C 137.100 21.315,136.751 21.469,136.324 21.469 C 135.898 21.469,135.642 21.619,135.755 21.803 C 135.869 21.987,135.201 22.252,134.271 22.391 C 133.341 22.531,132.580 22.804,132.580 22.999 C 132.580 23.193,132.326 23.352,132.015 23.352 C 131.704 23.352,131.450 23.522,131.450 23.729 C 131.450 23.936,131.323 24.087,131.168 24.065 C 130.613 23.985,129.190 24.576,129.190 24.886 C 129.190 25.059,128.597 25.313,127.872 25.449 C 127.147 25.585,126.554 25.847,126.554 26.031 C 126.554 26.215,126.299 26.365,125.989 26.365 C 125.678 26.365,125.424 26.535,125.424 26.742 C 125.424 26.949,125.244 27.119,125.025 27.119 C 124.805 27.119,124.730 26.951,124.856 26.746 C 124.988 26.533,124.837 26.469,124.504 26.597 C 124.184 26.720,124.015 26.973,124.130 27.158 C 124.244 27.344,124.074 27.495,123.751 27.495 C 123.428 27.495,123.164 27.657,123.164 27.855 C 123.164 28.053,122.571 28.326,121.846 28.462 C 121.121 28.598,120.527 28.870,120.527 29.066 C 120.527 29.262,120.357 29.317,120.148 29.189 C 119.939 29.060,119.673 29.204,119.556 29.509 C 119.364 30.008,117.720 30.714,117.066 30.578 C 116.924 30.548,116.703 30.851,116.576 31.250 C 116.437 31.688,116.129 31.894,115.800 31.767 C 115.500 31.652,115.254 31.745,115.254 31.975 C 115.254 32.204,115.000 32.392,114.689 32.392 C 114.379 32.392,114.124 32.561,114.124 32.768 C 114.124 32.976,113.780 33.145,113.359 33.145 C 112.938 33.145,112.497 33.399,112.377 33.710 C 112.258 34.021,111.924 34.275,111.636 34.275 C 111.347 34.275,111.111 34.433,111.111 34.626 C 111.111 34.819,110.738 35.096,110.281 35.241 C 109.825 35.386,109.219 35.736,108.936 36.020 C 108.653 36.303,108.179 36.535,107.883 36.535 C 107.587 36.535,107.345 36.686,107.345 36.871 C 107.345 37.055,106.921 37.313,106.403 37.443 C 105.885 37.573,105.461 37.845,105.461 38.049 C 105.461 38.252,105.274 38.418,105.045 38.418 C 104.816 38.418,104.295 38.842,103.888 39.360 C 103.480 39.878,102.905 40.301,102.609 40.301 C 102.313 40.301,102.072 40.459,102.072 40.653 C 102.072 40.846,101.690 41.123,101.224 41.268 C 100.758 41.414,100.290 41.666,100.185 41.828 C 100.079 41.991,99.744 42.180,99.441 42.249 C 99.137 42.317,98.465 42.839,97.948 43.409 C 97.431 43.978,96.718 44.444,96.363 44.444 C 96.009 44.444,95.608 44.796,95.472 45.225 C 95.318 45.710,95.015 45.925,94.673 45.794 C 94.365 45.676,94.224 45.747,94.353 45.955 C 94.480 46.160,94.376 46.328,94.124 46.328 C 93.871 46.328,93.172 46.879,92.571 47.552 C 91.970 48.225,91.336 48.776,91.162 48.776 C 90.716 48.776,88.136 51.171,88.136 51.585 C 88.136 51.773,87.754 52.043,87.288 52.184 C 86.822 52.326,85.552 53.365,84.465 54.493 C 83.379 55.621,82.331 56.446,82.137 56.326 C 81.943 56.206,81.662 56.307,81.512 56.549 C 81.342 56.825,81.403 56.889,81.674 56.721 C 82.307 56.331,82.207 56.751,81.461 57.623 C 81.104 58.039,80.590 58.380,80.319 58.380 C 80.048 58.380,79.719 58.677,79.589 59.040 C 79.245 59.996,78.212 60.910,77.675 60.732 C 77.421 60.647,77.213 60.854,77.213 61.192 C 77.213 61.972,72.013 67.133,71.529 66.834 C 71.330 66.711,71.192 66.750,71.222 66.921 C 71.360 67.717,71.126 68.142,70.428 68.363 C 70.010 68.496,69.766 68.761,69.885 68.954 C 70.004 69.146,69.921 69.303,69.702 69.303 C 69.483 69.303,69.303 69.531,69.303 69.809 C 69.303 70.347,66.351 73.446,65.839 73.446 C 65.673 73.446,65.537 73.760,65.537 74.143 C 65.537 74.527,65.028 75.230,64.407 75.706 C 63.785 76.182,63.277 76.893,63.277 77.286 C 63.277 77.753,63.053 77.961,62.626 77.888 C 62.268 77.828,61.957 77.947,61.935 78.154 C 61.844 79.012,61.052 80.460,60.307 81.132 C 59.869 81.526,59.507 82.035,59.504 82.262 C 59.500 82.489,59.077 83.073,58.564 83.560 C 58.050 84.047,57.696 84.555,57.777 84.690 C 57.984 85.032,57.005 85.881,56.726 85.602 C 56.600 85.476,56.497 85.746,56.497 86.201 C 56.497 86.657,56.243 87.127,55.932 87.246 C 55.621 87.365,55.367 87.778,55.367 88.163 C 55.367 88.547,55.014 89.052,54.582 89.283 C 54.150 89.514,53.893 89.800,54.011 89.918 C 54.129 90.036,53.795 90.530,53.270 91.017 C 52.745 91.504,52.519 91.902,52.769 91.902 C 53.018 91.902,52.882 92.199,52.466 92.561 C 52.049 92.924,51.575 93.644,51.412 94.162 C 51.250 94.680,50.828 95.358,50.476 95.669 C 50.124 95.979,49.908 96.445,49.996 96.704 C 50.085 96.963,49.973 97.175,49.749 97.175 C 49.524 97.175,49.341 97.429,49.341 97.740 C 49.341 98.051,49.175 98.305,48.971 98.305 C 48.768 98.305,48.496 98.729,48.366 99.247 C 48.236 99.765,47.978 100.188,47.793 100.188 C 47.609 100.188,47.458 100.443,47.458 100.753 C 47.458 101.064,47.270 101.318,47.041 101.318 C 46.811 101.318,46.721 101.573,46.841 101.883 C 46.960 102.194,46.893 102.448,46.693 102.448 C 46.492 102.448,46.328 102.787,46.328 103.202 C 46.328 103.616,46.140 103.955,45.911 103.955 C 45.681 103.955,45.591 104.209,45.711 104.520 C 45.830 104.831,45.763 105.085,45.563 105.085 C 45.362 105.085,45.198 105.339,45.198 105.650 C 45.198 105.960,45.028 106.215,44.821 106.215 C 44.614 106.215,44.442 106.511,44.439 106.874 C 44.434 107.440,44.379 107.453,44.051 106.968 C 43.764 106.544,43.726 106.652,43.898 107.396 C 44.069 108.135,43.934 108.525,43.371 108.920 C 42.955 109.211,42.499 109.908,42.359 110.469 C 42.218 111.029,41.952 111.488,41.767 111.488 C 41.582 111.488,41.431 111.921,41.431 112.452 C 41.431 113.039,41.274 113.318,41.029 113.167 C 40.808 113.031,40.667 113.148,40.714 113.427 C 40.846 114.200,40.264 116.008,39.884 116.008 C 39.699 116.008,39.548 116.431,39.548 116.949 C 39.548 117.467,39.384 117.891,39.183 117.891 C 38.983 117.891,38.916 118.145,39.035 118.456 C 39.154 118.766,39.064 119.021,38.835 119.021 C 38.606 119.021,38.418 119.275,38.418 119.586 C 38.418 119.896,38.230 120.151,38.001 120.151 C 37.743 120.151,37.674 120.512,37.819 121.092 C 37.956 121.635,37.893 122.034,37.672 122.034 C 37.461 122.034,37.288 122.288,37.288 122.599 C 37.288 122.910,37.119 123.164,36.911 123.164 C 36.704 123.164,36.535 123.598,36.535 124.128 C 36.535 124.658,36.396 125.006,36.226 124.901 C 36.057 124.796,35.991 125.210,36.081 125.820 C 36.178 126.482,36.074 126.930,35.824 126.930 C 35.594 126.930,35.402 127.312,35.399 127.778 C 35.394 128.479,35.325 128.528,34.996 128.060 C 34.691 127.627,34.633 127.781,34.748 128.719 C 34.830 129.393,34.758 129.944,34.586 129.944 C 34.415 129.944,34.275 130.377,34.275 130.907 C 34.275 131.454,34.112 131.770,33.898 131.638 C 33.674 131.500,33.511 131.985,33.495 132.840 C 33.473 134.022,33.407 134.142,33.120 133.522 C 32.872 132.988,32.835 133.234,32.991 134.369 C 33.134 135.406,33.067 135.970,32.801 135.970 C 32.576 135.970,32.392 136.404,32.392 136.934 C 32.392 137.464,32.241 137.805,32.058 137.691 C 31.874 137.578,31.638 137.814,31.533 138.216 C 31.428 138.618,31.536 139.026,31.773 139.124 C 32.069 139.245,32.057 139.309,31.733 139.330 C 31.451 139.348,31.262 139.890,31.262 140.678 C 31.262 141.403,31.092 141.996,30.885 141.996 C 30.678 141.996,30.508 142.426,30.508 142.951 C 30.508 143.476,30.212 144.360,29.849 144.914 C 29.487 145.468,29.402 145.791,29.661 145.632 C 29.979 145.436,30.132 145.593,30.132 146.117 C 30.132 146.544,29.962 146.893,29.755 146.893 C 29.548 146.893,29.379 147.401,29.379 148.023 C 29.379 148.644,29.194 149.153,28.969 149.153 C 28.699 149.153,28.646 149.669,28.814 150.659 C 28.981 151.650,28.928 152.166,28.658 152.166 C 28.431 152.166,28.249 152.838,28.249 153.672 C 28.249 154.501,28.079 155.179,27.872 155.179 C 27.665 155.179,27.493 155.899,27.490 156.780 C 27.485 157.942,27.385 158.226,27.124 157.815 C 26.878 157.430,26.837 157.711,26.996 158.701 C 27.163 159.735,27.078 160.246,26.703 160.484 C 26.327 160.722,26.312 160.819,26.648 160.823 C 26.907 160.826,27.119 161.083,27.119 161.394 C 27.119 161.704,26.949 161.959,26.742 161.959 C 26.530 161.959,26.365 163.026,26.365 164.407 C 26.365 165.958,26.211 166.855,25.945 166.855 C 25.651 166.855,25.605 167.605,25.792 169.353 C 25.979 171.100,25.928 171.933,25.623 172.121 C 25.332 172.301,25.193 173.799,25.205 176.610 C 25.218 179.290,25.089 180.745,24.853 180.599 C 24.649 180.473,24.482 180.620,24.482 180.926 C 24.482 181.231,24.694 181.567,24.953 181.671 C 25.322 181.821,25.320 181.868,24.942 181.891 C 24.358 181.927,24.301 197.363,24.885 197.363 C 25.080 197.363,25.235 199.205,25.235 201.507 C 25.235 204.195,25.377 205.650,25.638 205.650 C 25.912 205.650,25.957 206.612,25.778 208.663 C 25.591 210.806,25.638 211.676,25.940 211.676 C 26.209 211.676,26.365 212.508,26.365 213.936 C 26.365 215.364,26.522 216.196,26.791 216.196 C 27.087 216.196,27.153 217.026,27.008 218.927 C 26.879 220.608,26.916 221.223,27.103 220.527 C 27.367 219.542,27.412 219.651,27.451 221.375 C 27.475 222.462,27.665 223.352,27.872 223.352 C 28.079 223.352,28.249 224.030,28.249 224.859 C 28.249 225.687,28.402 226.365,28.589 226.365 C 28.777 226.365,28.839 227.043,28.728 227.872 C 28.595 228.861,28.672 229.379,28.952 229.379 C 29.187 229.379,29.379 229.887,29.379 230.508 C 29.379 231.130,29.556 231.638,29.772 231.638 C 30.018 231.638,30.073 232.133,29.919 232.957 C 29.757 233.821,29.816 234.275,30.090 234.275 C 30.320 234.275,30.508 234.783,30.508 235.405 C 30.508 236.026,30.678 236.535,30.885 236.535 C 31.092 236.535,31.262 236.799,31.262 237.122 C 31.262 237.445,31.099 237.609,30.901 237.486 C 30.703 237.364,30.786 237.735,31.087 238.312 C 31.388 238.888,31.635 239.656,31.636 240.019 C 31.637 240.381,31.808 240.678,32.015 240.678 C 32.222 240.678,32.392 241.271,32.392 241.996 C 32.392 242.721,32.542 243.315,32.726 243.315 C 32.909 243.315,33.174 244.077,33.314 245.009 C 33.453 245.942,33.727 246.704,33.921 246.704 C 34.116 246.704,34.275 247.128,34.275 247.646 C 34.275 248.164,34.421 248.588,34.599 248.588 C 34.778 248.588,34.849 249.054,34.758 249.623 C 34.629 250.433,34.680 250.536,34.993 250.094 C 35.316 249.639,35.394 249.730,35.399 250.565 C 35.402 251.135,35.594 251.601,35.825 251.601 C 36.061 251.601,36.159 251.933,36.049 252.354 C 35.941 252.768,36.006 253.202,36.194 253.318 C 36.381 253.434,36.535 253.942,36.535 254.448 C 36.535 254.954,36.704 255.367,36.911 255.367 C 37.119 255.367,37.288 255.621,37.288 255.932 C 37.288 256.243,37.428 256.497,37.600 256.497 C 37.771 256.497,37.833 257.030,37.737 257.681 C 37.617 258.500,37.695 258.783,37.991 258.600 C 38.240 258.446,38.418 258.581,38.418 258.923 C 38.418 259.246,38.606 259.510,38.835 259.510 C 39.064 259.510,39.154 259.765,39.035 260.075 C 38.916 260.386,38.983 260.640,39.183 260.640 C 39.384 260.640,39.548 261.064,39.548 261.582 C 39.548 262.100,39.710 262.524,39.908 262.524 C 40.105 262.524,40.378 263.117,40.514 263.842 C 40.651 264.567,40.912 265.160,41.097 265.160 C 41.281 265.160,41.431 265.400,41.431 265.694 C 41.431 265.987,41.558 266.284,41.714 266.353 C 42.103 266.526,43.203 268.892,43.479 270.151 C 43.603 270.720,43.882 271.186,44.097 271.186 C 44.313 271.186,44.383 271.357,44.254 271.566 C 44.126 271.774,44.275 272.043,44.586 272.162 C 44.897 272.282,45.260 272.874,45.393 273.478 C 45.526 274.082,45.771 274.576,45.939 274.576 C 46.107 274.576,46.355 275.169,46.491 275.895 C 46.627 276.620,46.900 277.213,47.098 277.213 C 47.296 277.213,47.458 277.449,47.458 277.737 C 47.458 278.026,47.712 278.360,48.023 278.479 C 48.333 278.598,48.588 279.040,48.588 279.461 C 48.588 279.882,48.757 280.226,48.964 280.226 C 49.171 280.226,49.341 280.480,49.341 280.791 C 49.341 281.102,49.553 281.359,49.812 281.362 C 50.177 281.366,50.174 281.436,49.798 281.675 C 49.435 281.905,49.549 282.160,50.256 282.691 C 50.851 283.138,51.046 283.493,50.785 283.654 C 50.536 283.808,50.702 284.015,51.202 284.174 C 51.726 284.340,51.954 284.640,51.821 284.988 C 51.702 285.296,51.773 285.437,51.982 285.308 C 52.186 285.182,52.354 285.342,52.354 285.665 C 52.354 285.988,52.524 286.252,52.731 286.252 C 52.938 286.252,53.080 286.379,53.048 286.535 C 52.930 287.088,53.569 288.128,53.900 287.923 C 54.086 287.808,54.237 288.069,54.237 288.502 C 54.237 288.935,54.481 289.383,54.779 289.497 C 55.077 289.612,55.430 290.201,55.563 290.807 C 55.696 291.413,55.961 291.812,56.151 291.695 C 56.341 291.577,56.497 291.736,56.497 292.047 C 56.497 292.358,56.835 292.849,57.248 293.139 C 57.661 293.428,57.910 293.754,57.801 293.862 C 57.692 293.971,58.030 294.464,58.550 294.958 C 59.071 295.453,59.500 296.038,59.504 296.260 C 59.507 296.481,59.934 297.031,60.452 297.481 C 60.970 297.932,61.394 298.483,61.394 298.706 C 61.394 298.929,61.649 299.368,61.962 299.681 C 62.275 299.993,62.418 300.431,62.280 300.654 C 62.132 300.894,62.208 300.948,62.468 300.787 C 62.709 300.639,63.171 300.782,63.495 301.106 C 63.920 301.531,63.949 301.695,63.600 301.695 C 63.334 301.695,63.816 302.331,64.672 303.107 C 65.528 303.884,66.339 304.901,66.473 305.367 C 66.607 305.833,66.869 306.215,67.053 306.215 C 67.470 306.215,69.303 308.160,69.303 308.602 C 69.303 308.780,70.635 310.222,72.263 311.807 C 73.890 313.392,75.330 314.997,75.461 315.372 C 75.593 315.748,75.872 315.950,76.080 315.821 C 76.289 315.692,76.460 315.813,76.460 316.090 C 76.460 316.616,77.746 317.895,78.719 318.335 C 79.116 318.515,79.138 318.599,78.791 318.618 C 78.118 318.654,78.624 319.397,79.321 319.397 C 79.628 319.397,81.211 320.753,82.840 322.411 C 84.468 324.068,86.082 325.424,86.425 325.424 C 86.772 325.424,86.940 325.603,86.802 325.826 C 86.665 326.047,86.911 326.321,87.350 326.436 C 87.817 326.558,88.106 326.899,88.047 327.258 C 87.989 327.614,88.165 327.826,88.466 327.762 C 88.751 327.701,89.227 327.998,89.523 328.421 C 89.819 328.844,90.278 329.190,90.543 329.190 C 90.808 329.190,91.477 329.699,92.031 330.320 C 92.585 330.942,93.291 331.450,93.600 331.450 C 94.115 331.450,94.335 331.911,94.197 332.702 C 94.168 332.873,94.331 332.897,94.559 332.756 C 94.788 332.614,95.226 332.856,95.532 333.293 C 95.838 333.729,96.285 334.087,96.525 334.087 C 96.766 334.087,97.350 334.538,97.824 335.089 C 98.298 335.640,98.787 335.990,98.912 335.865 C 99.036 335.741,99.552 336.052,100.057 336.558 C 100.562 337.063,101.204 337.476,101.483 337.476 C 101.763 337.476,102.089 337.731,102.208 338.041 C 102.327 338.352,102.675 338.606,102.980 338.606 C 103.285 338.606,103.757 338.921,104.028 339.306 C 104.298 339.690,104.901 340.125,105.367 340.273 C 105.833 340.420,106.215 340.698,106.215 340.892 C 106.215 341.085,106.451 341.243,106.739 341.243 C 107.028 341.243,107.362 341.497,107.481 341.808 C 107.600 342.119,108.042 342.373,108.463 342.373 C 108.884 342.373,109.228 342.542,109.228 342.750 C 109.228 342.957,109.492 343.126,109.815 343.126 C 110.138 343.126,110.299 343.294,110.172 343.499 C 110.040 343.712,110.191 343.775,110.527 343.647 C 110.848 343.523,111.111 343.610,111.111 343.839 C 111.111 344.068,111.365 344.256,111.676 344.256 C 111.987 344.256,112.241 344.440,112.241 344.664 C 112.241 344.889,112.453 345.000,112.712 344.911 C 112.971 344.823,113.437 345.033,113.748 345.377 C 114.268 345.953,115.340 346.516,115.852 346.481 C 115.969 346.473,116.456 346.920,116.933 347.475 C 117.565 348.211,117.855 348.345,118.004 347.971 C 118.149 347.606,118.217 347.594,118.238 347.928 C 118.254 348.187,118.522 348.399,118.832 348.399 C 119.143 348.399,119.397 348.569,119.397 348.776 C 119.397 348.983,119.652 349.153,119.962 349.153 C 120.273 349.153,120.527 349.306,120.527 349.494 C 120.527 349.682,120.866 349.747,121.281 349.638 C 121.702 349.528,122.034 349.627,122.034 349.862 C 122.034 350.093,122.288 350.282,122.599 350.282 C 122.910 350.282,123.164 350.470,123.164 350.699 C 123.164 350.929,123.392 351.029,123.670 350.922 C 123.949 350.815,124.410 351.051,124.695 351.447 C 124.980 351.842,125.515 352.166,125.884 352.166 C 126.252 352.166,126.554 352.319,126.554 352.507 C 126.554 352.695,126.893 352.760,127.307 352.652 C 127.728 352.541,128.060 352.640,128.060 352.875 C 128.060 353.106,128.300 353.296,128.594 353.296 C 128.887 353.296,129.193 353.492,129.273 353.732 C 129.353 353.972,129.833 354.231,130.340 354.308 C 130.847 354.385,131.318 354.612,131.387 354.813 C 131.456 355.014,131.922 355.179,132.423 355.179 C 132.924 355.179,133.333 355.367,133.333 355.596 C 133.333 355.825,133.588 355.915,133.898 355.796 C 134.209 355.677,134.463 355.743,134.463 355.944 C 134.463 356.145,134.845 356.311,135.311 356.315 C 135.996 356.319,136.050 356.390,135.593 356.685 C 135.133 356.983,135.185 357.060,135.876 357.103 C 136.342 357.133,136.893 357.199,137.100 357.250 C 137.307 357.302,137.825 357.366,138.252 357.392 C 138.679 357.418,138.923 357.608,138.795 357.815 C 138.663 358.029,138.979 358.192,139.526 358.192 C 140.056 358.192,140.490 358.356,140.490 358.557 C 140.490 358.758,140.744 358.824,141.055 358.705 C 141.365 358.586,141.620 358.676,141.620 358.905 C 141.620 359.134,142.043 359.322,142.561 359.322 C 143.079 359.322,143.503 359.477,143.503 359.666 C 143.503 359.855,144.181 360.124,145.009 360.264 C 145.838 360.404,146.516 360.631,146.516 360.770 C 146.516 361.230,148.800 362.040,149.547 361.845 C 149.951 361.739,150.282 361.806,150.282 361.994 C 150.282 362.182,150.706 362.335,151.224 362.335 C 151.742 362.335,152.166 362.485,152.166 362.668 C 152.166 362.852,153.098 363.118,154.237 363.261 C 155.377 363.403,156.309 363.677,156.309 363.869 C 156.309 364.061,156.817 364.218,157.439 364.218 C 158.060 364.218,158.569 364.408,158.569 364.639 C 158.569 364.885,158.961 364.985,159.510 364.880 C 160.028 364.781,160.452 364.846,160.452 365.024 C 160.452 365.202,161.045 365.348,161.770 365.348 C 162.495 365.348,163.089 365.518,163.089 365.725 C 163.089 365.932,163.587 366.102,164.196 366.102 C 164.805 366.102,165.418 366.286,165.558 366.512 C 165.710 366.759,166.318 366.828,167.086 366.683 C 167.875 366.536,168.362 366.594,168.362 366.838 C 168.362 367.054,169.082 367.244,169.962 367.258 C 171.253 367.279,171.417 367.353,170.810 367.637 C 170.270 367.890,170.669 367.953,172.222 367.862 C 173.413 367.792,174.388 367.876,174.388 368.048 C 174.388 368.221,175.235 368.362,176.271 368.362 C 177.307 368.362,178.154 368.531,178.154 368.738 C 178.154 368.950,179.214 369.115,180.580 369.115 C 181.915 369.115,183.113 369.288,183.244 369.499 C 183.392 369.739,184.392 369.790,185.903 369.636 C 187.607 369.461,188.324 369.514,188.324 369.816 C 188.324 370.107,189.478 370.245,191.902 370.245 C 194.102 370.245,195.480 370.394,195.480 370.632 C 195.480 370.884,197.295 370.983,200.659 370.915 L 205.838 370.810 205.934 317.363 C 206.008 275.375,206.130 263.787,206.498 263.314 C 206.896 262.804,206.882 262.777,206.403 263.139 C 205.851 263.557,203.386 263.573,202.260 263.167 C 201.949 263.055,199.757 262.859,197.389 262.732 C 195.021 262.606,192.902 262.360,192.681 262.186 C 192.460 262.013,191.347 261.755,190.207 261.614 C 188.138 261.358,186.043 260.818,184.886 260.243 C 184.549 260.076,183.658 259.823,182.905 259.682 C 182.152 259.541,181.443 259.275,181.330 259.091 C 181.216 258.907,180.862 258.757,180.543 258.757 C 180.224 258.757,179.387 258.503,178.682 258.192 C 177.978 257.881,176.825 257.373,176.120 257.062 C 175.416 256.751,174.667 256.497,174.457 256.497 C 174.246 256.497,174.018 256.370,173.949 256.215 C 173.879 256.059,172.721 255.373,171.375 254.689 C 168.534 253.247,167.854 252.852,166.221 251.696 C 165.562 251.229,164.902 250.847,164.755 250.847 C 164.608 250.847,163.595 250.085,162.504 249.153 C 161.413 248.220,160.408 247.458,160.270 247.458 C 159.936 247.458,154.312 242.377,152.592 240.521 C 151.839 239.710,150.334 238.084,149.247 236.909 C 148.159 235.733,147.269 234.653,147.269 234.508 C 147.269 234.202,145.880 232.199,144.901 231.095 C 144.530 230.677,144.130 229.950,144.012 229.480 C 143.894 229.010,143.685 228.625,143.548 228.625 C 143.410 228.625,142.971 227.990,142.571 227.213 C 142.172 226.436,141.640 225.546,141.388 225.235 C 140.814 224.525,138.234 219.504,138.232 219.091 C 138.231 218.922,137.810 217.867,137.298 216.747 C 136.785 215.626,136.253 214.239,136.116 213.664 C 135.978 213.088,135.727 212.440,135.558 212.222 C 135.388 212.005,135.134 211.073,134.993 210.151 C 134.852 209.229,134.612 208.305,134.459 208.098 C 134.306 207.891,134.086 207.213,133.969 206.591 C 133.852 205.970,133.584 204.699,133.373 203.766 C 133.162 202.834,132.982 201.351,132.973 200.471 C 132.964 199.548,132.778 198.870,132.534 198.870 C 132.229 198.870,132.233 198.723,132.550 198.342 C 132.869 197.957,132.873 197.775,132.567 197.673 C 132.060 197.504,131.918 181.182,132.416 180.375 C 132.590 180.093,132.760 179.605,132.793 179.291 C 133.237 175.075,133.441 173.760,133.737 173.208 C 133.929 172.848,134.087 172.129,134.087 171.610 C 134.087 171.091,134.234 170.575,134.414 170.464 C 134.593 170.353,134.853 169.417,134.990 168.386 C 135.126 167.354,135.381 166.421,135.555 166.313 C 135.730 166.206,135.970 165.631,136.089 165.036 C 136.208 164.441,136.738 163.008,137.267 161.851 C 137.797 160.694,138.230 159.633,138.230 159.494 C 138.230 158.751,142.294 151.124,143.135 150.288 C 143.450 149.974,143.901 149.277,144.137 148.737 C 144.373 148.198,145.344 146.803,146.294 145.635 C 147.245 144.468,148.023 143.376,148.023 143.208 C 148.023 143.040,148.701 142.240,149.529 141.431 C 150.358 140.622,151.036 139.829,151.036 139.669 C 151.036 139.045,159.989 130.697,160.658 130.697 C 160.798 130.697,161.722 130.019,162.712 129.190 C 163.702 128.362,164.633 127.684,164.781 127.684 C 164.930 127.684,165.584 127.257,166.236 126.736 C 166.887 126.215,167.602 125.643,167.826 125.464 C 168.049 125.285,168.642 125.011,169.144 124.854 C 169.646 124.697,170.141 124.456,170.245 124.318 C 170.507 123.968,173.093 122.787,173.597 122.787 C 173.825 122.787,174.011 122.618,174.011 122.411 C 174.011 122.203,174.198 122.034,174.425 122.034 C 174.653 122.034,175.416 121.780,176.120 121.469 C 176.825 121.158,177.978 120.650,178.682 120.339 C 179.387 120.028,180.224 119.774,180.543 119.774 C 180.862 119.774,181.219 119.619,181.336 119.430 C 181.453 119.241,182.224 118.972,183.051 118.832 C 183.877 118.693,184.649 118.424,184.766 118.235 C 184.883 118.046,185.443 117.891,186.011 117.891 C 186.579 117.891,187.217 117.717,187.430 117.504 C 187.643 117.291,188.736 117.024,189.859 116.909 C 190.983 116.795,192.241 116.551,192.655 116.367 C 193.070 116.183,194.171 115.966,195.104 115.885 C 196.036 115.804,197.053 115.638,197.363 115.517 C 198.325 115.141,205.957 114.963,206.380 115.306 C 206.654 115.529,206.662 115.489,206.403 115.179 C 206.156 114.882,206.026 96.309,206.026 61.130 L 206.026 7.533 202.668 7.533 C 200.334 7.533,199.252 7.677,199.120 8.004 C 198.968 8.380,198.924 8.380,198.900 8.004 C 198.865 7.448,198.117 7.358,198.117 7.910 M208.475 115.254 L 206.968 115.524 208.779 115.577 C 209.903 115.611,210.502 115.488,210.358 115.254 C 210.230 115.047,210.093 114.902,210.053 114.931 C 210.014 114.960,209.303 115.106,208.475 115.254 M222.079 117.210 C 222.196 117.399,222.488 117.486,222.728 117.404 C 222.968 117.321,223.661 117.394,224.268 117.566 C 224.951 117.758,225.239 117.744,225.022 117.527 C 224.556 117.062,221.804 116.766,222.079 117.210 M232.209 120.160 C 232.303 120.313,232.802 120.518,233.316 120.616 C 233.831 120.715,234.175 120.670,234.081 120.518 C 233.987 120.365,233.488 120.160,232.974 120.062 C 232.459 119.963,232.115 120.008,232.209 120.160 M251.601 131.262 C 251.859 131.573,252.239 131.827,252.446 131.827 C 252.656 131.827,252.616 131.577,252.354 131.262 C 252.096 130.951,251.716 130.697,251.509 130.697 C 251.298 130.697,251.339 130.947,251.601 131.262 M258.757 137.563 C 258.757 137.620,259.266 138.147,259.888 138.734 C 260.510 139.321,260.919 139.543,260.798 139.227 C 260.614 138.749,258.757 137.235,258.757 137.563 M275.241 163.670 C 275.339 164.185,275.544 164.683,275.697 164.778 C 275.849 164.872,275.894 164.528,275.795 164.013 C 275.697 163.498,275.491 163.000,275.339 162.906 C 275.187 162.812,275.142 163.156,275.241 163.670 M278.298 174.094 C 278.471 175.140,278.524 175.193,278.643 174.439 C 278.720 173.949,278.628 173.393,278.438 173.203 C 278.229 172.994,278.174 173.345,278.298 174.094 M278.561 201.977 C 278.158 203.954,278.078 204.933,278.342 204.642 C 278.497 204.471,278.714 203.611,278.824 202.731 C 279.035 201.046,278.856 200.532,278.561 201.977 M275.506 213.748 C 275.409 214.058,275.247 214.576,275.146 214.897 C 275.044 215.219,275.109 215.391,275.289 215.279 C 275.469 215.168,275.698 214.651,275.797 214.130 C 275.994 213.100,275.791 212.834,275.506 213.748 M263.277 235.593 C 263.011 235.914,262.878 236.261,262.981 236.365 C 263.085 236.468,263.387 236.291,263.653 235.970 C 263.920 235.649,264.053 235.302,263.949 235.198 C 263.846 235.095,263.543 235.272,263.277 235.593 M223.352 260.912 C 222.834 261.005,222.263 261.223,222.082 261.396 C 221.901 261.570,222.381 261.570,223.148 261.397 C 223.914 261.224,224.641 260.983,224.763 260.862 C 224.994 260.631,224.899 260.634,223.352 260.912 M329.781 321.629 C 329.157 322.318,329.158 322.349,329.785 322.257 C 330.149 322.203,330.487 321.877,330.538 321.532 C 330.655 320.735,330.582 320.744,329.781 321.629 " stroke="none" fill="#74f4dc" fill-rule="evenodd"></path><path id="path1" d="M206.026 61.044 C 206.026 108.107,206.094 114.623,206.591 115.120 C 206.902 115.430,207.156 115.528,207.156 115.336 C 207.156 114.972,209.767 114.968,210.382 115.331 C 210.576 115.446,212.594 115.655,214.867 115.797 C 217.140 115.938,219.216 116.234,219.481 116.454 C 219.828 116.741,219.962 116.722,219.962 116.384 C 219.962 116.033,220.090 116.021,220.471 116.337 C 220.750 116.569,221.851 116.842,222.916 116.944 C 223.982 117.045,225.194 117.300,225.610 117.509 C 227.432 118.429,227.779 118.563,229.014 118.828 C 229.732 118.982,230.490 119.236,230.697 119.392 C 230.904 119.548,231.746 119.797,232.567 119.946 C 233.389 120.094,234.501 120.529,235.039 120.911 C 235.576 121.294,236.514 121.726,237.123 121.871 C 237.732 122.016,238.484 122.341,238.795 122.592 C 239.105 122.844,239.614 123.156,239.925 123.287 C 240.235 123.418,241.168 123.947,241.996 124.464 C 242.825 124.980,244.033 125.645,244.681 125.940 C 245.329 126.235,245.981 126.674,246.130 126.915 C 246.279 127.156,246.766 127.512,247.212 127.706 C 248.516 128.273,249.450 128.943,250.201 129.849 C 250.586 130.315,251.112 130.697,251.369 130.697 C 251.626 130.697,252.324 131.205,252.919 131.827 C 253.514 132.448,254.224 132.957,254.496 132.957 C 254.768 132.957,254.991 133.211,254.991 133.522 C 254.991 133.832,255.165 134.087,255.377 134.087 C 255.964 134.087,261.017 139.035,261.017 139.610 C 261.017 139.887,261.271 140.113,261.582 140.113 C 261.893 140.113,262.147 140.338,262.147 140.612 C 262.147 140.887,262.571 141.510,263.089 141.996 C 263.606 142.483,264.030 143.040,264.030 143.235 C 264.030 143.430,264.855 144.544,265.862 145.712 C 266.870 146.879,267.826 148.258,267.988 148.776 C 268.149 149.294,268.553 149.974,268.886 150.288 C 269.879 151.223,274.200 159.429,274.200 160.379 C 274.200 160.860,274.971 162.388,275.378 162.712 C 275.508 162.815,275.734 163.620,275.881 164.499 C 276.028 165.378,276.298 166.190,276.481 166.304 C 276.664 166.417,276.926 167.354,277.063 168.386 C 277.200 169.417,277.459 170.353,277.639 170.464 C 277.819 170.575,277.966 171.130,277.966 171.698 C 277.966 172.266,278.123 172.892,278.314 173.089 C 278.506 173.285,278.776 174.718,278.914 176.271 C 279.053 177.825,279.328 179.293,279.526 179.533 C 279.760 179.817,279.733 180.065,279.451 180.240 C 279.127 180.440,279.136 180.583,279.484 180.798 C 280.136 181.201,280.114 197.344,279.461 197.748 C 279.126 197.955,279.123 198.089,279.451 198.292 C 279.735 198.467,279.760 198.712,279.523 198.998 C 279.323 199.238,279.039 200.664,278.891 202.166 C 278.743 203.668,278.474 204.896,278.294 204.896 C 278.114 204.896,277.966 205.395,277.966 206.004 C 277.966 206.613,277.816 207.204,277.633 207.317 C 277.451 207.430,277.183 208.463,277.040 209.612 C 276.896 210.760,276.539 212.161,276.245 212.724 C 275.951 213.287,275.710 213.962,275.709 214.224 C 275.707 214.485,275.556 214.994,275.372 215.354 C 274.358 217.337,273.070 220.203,273.070 220.476 C 273.070 220.996,271.870 223.465,271.031 224.670 C 270.599 225.292,269.922 226.436,269.526 227.213 C 269.131 227.990,268.685 228.625,268.535 228.625 C 268.384 228.625,268.162 228.922,268.040 229.284 C 267.737 230.186,267.107 231.140,265.444 233.213 C 264.666 234.182,264.030 235.121,264.030 235.300 C 264.030 235.479,263.267 236.373,262.335 237.288 C 261.403 238.203,260.640 239.171,260.640 239.438 C 260.640 239.706,260.370 239.925,260.040 239.925 C 259.710 239.925,259.351 240.264,259.243 240.678 C 259.134 241.092,258.811 241.431,258.525 241.431 C 258.238 241.431,258.004 241.685,258.004 241.996 C 258.004 242.307,257.750 242.561,257.439 242.561 C 257.128 242.561,256.874 242.815,256.874 243.126 C 256.874 243.437,256.656 243.691,256.389 243.691 C 256.122 243.691,255.069 244.539,254.049 245.574 C 253.029 246.610,252.036 247.458,251.844 247.458 C 251.651 247.458,250.628 248.191,249.570 249.088 C 248.512 249.985,247.095 250.959,246.422 251.252 C 245.749 251.545,245.198 251.908,245.198 252.058 C 245.198 252.209,244.308 252.766,243.220 253.297 C 242.133 253.827,240.650 254.576,239.925 254.961 C 237.501 256.248,233.622 258.004,233.204 258.004 C 232.977 258.004,232.188 258.343,231.450 258.757 C 230.712 259.171,229.723 259.510,229.251 259.510 C 228.779 259.510,228.064 259.759,227.661 260.063 C 227.259 260.367,226.474 260.622,225.917 260.628 C 225.359 260.635,224.807 260.796,224.689 260.987 C 224.571 261.178,223.332 261.441,221.936 261.570 C 220.540 261.700,219.086 261.978,218.706 262.188 C 218.325 262.399,215.952 262.667,213.432 262.784 C 210.913 262.901,208.669 263.141,208.447 263.316 C 208.216 263.498,207.859 263.452,207.615 263.209 C 205.995 261.588,206.026 260.526,206.026 317.372 L 206.026 370.998 209.040 370.998 C 211.016 370.998,212.053 370.853,212.053 370.575 C 212.053 370.271,212.202 370.277,212.584 370.594 C 212.985 370.926,213.182 370.928,213.385 370.600 C 213.581 370.281,213.750 370.302,214.012 370.675 C 214.290 371.073,214.412 371.082,214.561 370.716 C 214.697 370.379,215.927 370.245,218.864 370.245 C 221.899 370.245,222.977 370.122,222.981 369.774 C 222.985 369.460,223.105 369.490,223.342 369.865 C 223.611 370.291,223.803 370.321,224.133 369.991 C 224.413 369.711,225.300 369.630,226.610 369.766 C 228.299 369.940,228.737 369.859,229.149 369.296 C 229.501 368.814,229.854 368.705,230.360 368.921 C 231.227 369.293,232.826 369.176,233.315 368.706 C 233.511 368.516,234.401 368.362,235.292 368.362 C 236.183 368.362,236.911 368.190,236.911 367.980 C 236.911 367.747,237.494 367.693,238.418 367.840 C 239.428 368.002,239.925 367.941,239.925 367.656 C 239.925 367.398,240.661 367.232,241.808 367.232 C 242.844 367.232,243.691 367.073,243.691 366.879 C 243.691 366.685,244.292 366.623,245.027 366.742 C 246.046 366.908,246.336 366.835,246.251 366.436 C 246.168 366.047,246.501 365.945,247.552 366.037 C 248.387 366.110,248.964 365.995,248.964 365.755 C 248.964 365.531,249.557 365.348,250.282 365.348 C 251.008 365.348,251.601 365.176,251.601 364.965 C 251.601 364.737,252.008 364.683,252.599 364.831 C 253.301 365.007,253.517 364.954,253.330 364.650 C 253.148 364.357,253.492 364.218,254.403 364.218 C 255.141 364.218,255.744 364.049,255.744 363.842 C 255.744 363.635,256.168 363.465,256.685 363.465 C 257.203 363.465,257.627 363.300,257.627 363.098 C 257.627 362.891,258.120 362.829,258.757 362.957 C 259.477 363.101,259.887 363.029,259.887 362.759 C 259.887 362.526,260.311 362.335,260.829 362.335 C 261.347 362.335,261.770 362.162,261.770 361.951 C 261.770 361.730,262.169 361.668,262.712 361.804 C 263.292 361.950,263.653 361.880,263.653 361.623 C 263.653 361.393,263.982 361.205,264.385 361.205 C 264.787 361.205,265.207 361.058,265.318 360.878 C 265.429 360.698,266.202 360.442,267.035 360.309 C 267.868 360.175,268.550 359.899,268.550 359.694 C 268.550 359.490,268.889 359.322,269.303 359.322 C 269.718 359.322,270.056 359.149,270.056 358.938 C 270.056 358.717,270.455 358.654,270.998 358.791 C 271.578 358.936,271.940 358.867,271.940 358.610 C 271.940 358.380,272.194 358.192,272.505 358.192 C 272.815 358.192,273.070 358.042,273.070 357.858 C 273.070 357.675,273.836 357.409,274.772 357.269 C 275.874 357.104,276.383 356.867,276.217 356.597 C 276.049 356.327,276.184 356.267,276.600 356.427 C 276.980 356.573,277.320 356.468,277.434 356.170 C 277.551 355.865,277.991 355.737,278.550 355.844 C 279.084 355.946,279.473 355.843,279.473 355.599 C 279.473 355.368,279.727 355.179,280.038 355.179 C 280.348 355.179,280.603 355.009,280.603 354.802 C 280.603 354.595,280.857 354.426,281.168 354.426 C 281.478 354.426,281.733 354.261,281.733 354.061 C 281.733 353.860,281.987 353.794,282.298 353.913 C 282.608 354.032,282.863 353.942,282.863 353.713 C 282.863 353.483,283.117 353.296,283.427 353.296 C 283.738 353.296,283.992 353.115,283.992 352.894 C 283.992 352.655,284.318 352.595,284.793 352.746 C 285.386 352.934,285.516 352.875,285.296 352.519 C 285.083 352.175,285.181 352.108,285.640 352.284 C 286.037 352.436,286.362 352.317,286.495 351.971 C 286.613 351.664,287.121 351.412,287.623 351.412 C 288.125 351.412,288.633 351.158,288.753 350.847 C 288.872 350.537,289.206 350.282,289.494 350.282 C 289.783 350.282,290.019 350.102,290.019 349.880 C 290.019 349.650,290.340 349.580,290.772 349.718 C 291.204 349.855,291.525 349.785,291.525 349.555 C 291.525 349.333,291.780 349.153,292.090 349.153 C 292.401 349.153,292.655 348.983,292.655 348.776 C 292.655 348.569,292.910 348.399,293.220 348.399 C 293.531 348.399,293.785 348.220,293.785 348.000 C 293.785 347.781,293.968 347.715,294.192 347.853 C 294.416 347.991,294.857 347.736,295.173 347.285 C 295.488 346.834,295.983 346.556,296.273 346.667 C 296.581 346.786,296.798 346.631,296.798 346.294 C 296.798 345.967,296.980 345.830,297.217 345.977 C 297.448 346.119,297.744 346.087,297.876 345.905 C 298.198 345.463,299.467 344.663,300.282 344.390 C 300.645 344.268,300.942 344.007,300.942 343.810 C 300.942 343.613,301.267 343.555,301.665 343.682 C 302.182 343.846,302.457 343.692,302.632 343.142 C 302.768 342.712,303.201 342.373,303.615 342.373 C 304.022 342.373,304.453 342.119,304.572 341.808 C 304.691 341.497,305.015 341.243,305.292 341.243 C 305.569 341.243,306.032 340.905,306.321 340.492 C 306.611 340.079,306.963 339.857,307.105 339.999 C 307.246 340.140,307.617 339.892,307.929 339.447 C 308.240 339.002,308.729 338.728,309.016 338.838 C 309.323 338.956,309.638 338.718,309.784 338.257 C 309.924 337.816,310.354 337.476,310.772 337.476 C 311.179 337.476,311.609 337.222,311.728 336.911 C 311.847 336.601,312.260 336.347,312.645 336.347 C 313.030 336.347,313.547 335.969,313.794 335.507 C 314.429 334.320,315.002 333.814,315.517 333.986 C 316.026 334.156,317.563 332.755,317.232 332.423 C 317.111 332.302,317.338 332.203,317.736 332.203 C 318.134 332.203,318.950 331.616,319.549 330.897 C 320.148 330.179,320.780 329.679,320.954 329.786 C 321.127 329.893,321.775 329.464,322.392 328.832 C 323.010 328.201,323.424 327.684,323.313 327.684 C 323.201 327.684,323.375 327.419,323.699 327.095 C 324.023 326.771,324.457 326.610,324.663 326.738 C 324.881 326.872,324.943 326.722,324.813 326.381 C 324.661 325.985,324.755 325.857,325.100 325.989 C 325.408 326.107,326.653 325.053,328.211 323.353 C 329.704 321.724,331.064 320.561,331.411 320.618 C 331.803 320.681,331.976 320.485,331.904 320.056 C 331.836 319.651,332.032 319.397,332.413 319.397 C 333.219 319.397,335.593 317.019,335.593 316.211 C 335.593 315.868,335.764 315.692,335.973 315.821 C 336.449 316.115,337.351 315.240,337.530 314.311 C 337.605 313.925,338.719 312.750,340.007 311.701 C 341.434 310.537,342.443 309.397,342.592 308.778 C 342.726 308.219,343.253 307.456,343.763 307.083 C 345.520 305.795,346.516 304.743,346.516 304.172 C 346.516 303.858,347.024 303.225,347.646 302.765 C 348.267 302.306,348.776 301.644,348.776 301.294 C 348.776 300.464,349.768 299.587,349.982 300.227 C 350.064 300.473,350.338 299.982,350.591 299.136 C 350.873 298.195,351.342 297.505,351.797 297.361 C 352.207 297.231,352.542 296.838,352.542 296.487 C 352.542 296.137,352.877 295.641,353.285 295.386 C 353.714 295.118,353.937 294.685,353.813 294.362 C 353.674 294.001,353.954 293.641,354.602 293.346 C 355.270 293.041,355.549 292.671,355.436 292.239 C 355.329 291.829,355.528 291.522,355.976 291.405 C 356.366 291.303,356.685 290.905,356.685 290.521 C 356.685 290.137,357.020 289.615,357.428 289.360 C 357.837 289.104,358.084 288.670,357.979 288.394 C 357.866 288.101,358.214 287.698,358.817 287.424 C 359.641 287.048,359.738 286.885,359.302 286.609 C 358.970 286.399,358.931 286.262,359.202 286.258 C 359.446 286.255,359.701 285.871,359.767 285.405 C 359.841 284.882,360.131 284.576,360.524 284.606 C 360.873 284.633,361.253 284.412,361.367 284.116 C 361.481 283.816,361.408 283.679,361.201 283.807 C 360.460 284.265,360.849 283.268,361.623 282.726 C 362.060 282.420,362.304 281.986,362.165 281.763 C 362.027 281.539,362.094 281.356,362.313 281.356 C 362.532 281.356,362.712 281.028,362.712 280.628 C 362.712 280.228,363.045 279.794,363.452 279.665 C 363.921 279.516,364.281 278.956,364.435 278.136 C 364.570 277.418,364.845 276.946,365.053 277.075 C 365.285 277.218,365.332 277.000,365.175 276.507 C 365.024 276.032,365.084 275.706,365.323 275.706 C 365.544 275.706,365.725 275.452,365.725 275.141 C 365.725 274.831,365.913 274.576,366.142 274.576 C 366.371 274.576,366.461 274.322,366.342 274.011 C 366.208 273.661,366.344 273.446,366.701 273.446 C 367.017 273.446,367.163 273.263,367.025 273.040 C 366.886 272.816,367.144 272.373,367.598 272.055 C 368.194 271.638,368.361 271.237,368.203 270.605 C 368.038 269.948,368.171 269.672,368.737 269.492 C 369.152 269.360,369.492 269.010,369.492 268.713 C 369.492 268.416,369.641 268.173,369.824 268.173 C 370.007 268.173,370.246 267.834,370.354 267.419 C 370.463 267.005,370.398 266.761,370.210 266.877 C 370.022 266.993,369.868 266.908,369.868 266.689 C 369.868 266.470,370.038 266.290,370.245 266.290 C 370.452 266.290,370.621 265.951,370.621 265.537 C 370.621 265.122,370.786 264.783,370.986 264.783 C 371.187 264.783,371.254 264.529,371.134 264.218 C 371.015 263.908,371.105 263.653,371.334 263.653 C 371.564 263.653,371.751 263.399,371.751 263.089 C 371.751 262.778,371.921 262.524,372.128 262.524 C 372.335 262.524,372.505 262.269,372.505 261.959 C 372.505 261.648,372.693 261.394,372.922 261.394 C 373.179 261.394,373.249 261.032,373.103 260.452 C 372.967 259.909,373.029 259.510,373.251 259.510 C 373.462 259.510,373.635 259.256,373.635 258.945 C 373.635 258.635,373.824 258.380,374.055 258.380 C 374.301 258.380,374.401 257.988,374.296 257.439 C 374.197 256.921,374.262 256.497,374.440 256.497 C 374.619 256.497,374.765 256.243,374.765 255.932 C 374.765 255.621,374.934 255.367,375.141 255.367 C 375.348 255.367,375.518 254.944,375.518 254.426 C 375.518 253.908,375.691 253.484,375.902 253.484 C 376.123 253.484,376.185 253.085,376.049 252.542 C 375.904 251.962,375.973 251.601,376.230 251.601 C 376.460 251.601,376.648 251.347,376.648 251.036 C 376.648 250.725,376.837 250.471,377.068 250.471 C 377.314 250.471,377.414 250.079,377.309 249.529 C 377.210 249.011,377.275 248.588,377.453 248.588 C 377.632 248.588,377.778 248.164,377.778 247.646 C 377.778 247.128,377.947 246.704,378.154 246.704 C 378.362 246.704,378.531 246.281,378.531 245.763 C 378.531 245.245,378.720 244.821,378.952 244.821 C 379.187 244.821,379.285 244.489,379.175 244.068 C 379.067 243.653,379.132 243.315,379.320 243.315 C 379.507 243.315,379.661 242.721,379.661 241.996 C 379.661 241.271,379.850 240.678,380.082 240.678 C 380.317 240.678,380.415 240.346,380.305 239.925 C 380.197 239.511,380.262 239.077,380.450 238.961 C 380.637 238.845,380.791 238.252,380.791 237.643 C 380.791 237.033,380.971 236.535,381.192 236.535 C 381.417 236.535,381.541 235.999,381.474 235.311 C 381.389 234.431,381.501 234.117,381.871 234.196 C 382.267 234.279,382.329 233.994,382.137 232.972 C 381.980 232.136,382.034 231.638,382.280 231.638 C 382.497 231.638,382.674 231.130,382.674 230.508 C 382.674 229.887,382.866 229.379,383.100 229.379 C 383.380 229.379,383.457 228.861,383.325 227.872 C 383.213 227.043,383.276 226.365,383.463 226.365 C 383.651 226.365,383.804 225.593,383.804 224.648 C 383.804 223.599,383.951 223.022,384.181 223.164 C 384.408 223.304,384.557 222.791,384.557 221.868 C 384.557 220.983,384.737 220.339,384.983 220.339 C 385.280 220.339,385.331 219.658,385.152 218.079 C 384.984 216.590,385.032 215.819,385.292 215.819 C 385.520 215.819,385.687 214.943,385.687 213.748 C 385.687 212.491,385.851 211.676,386.102 211.676 C 386.374 211.676,386.471 210.864,386.385 209.322 C 386.287 207.585,386.376 206.993,386.723 207.062 C 387.457 207.209,387.276 206.103,386.535 205.909 C 385.946 205.756,385.952 205.732,386.583 205.693 C 387.245 205.653,387.274 205.404,387.020 201.832 C 386.807 198.825,386.857 197.946,387.254 197.689 C 387.675 197.418,387.673 197.308,387.246 197.032 C 386.812 196.753,386.812 196.669,387.246 196.496 C 387.667 196.328,387.657 196.219,387.194 195.891 C 386.811 195.620,386.781 195.490,387.100 195.486 C 387.458 195.482,387.571 193.908,387.571 188.889 C 387.571 183.870,387.458 182.296,387.100 182.292 C 386.785 182.288,386.816 182.163,387.194 181.915 C 387.664 181.607,387.673 181.489,387.246 181.213 C 386.812 180.934,386.812 180.850,387.246 180.677 C 387.673 180.506,387.675 180.413,387.254 180.117 C 386.858 179.839,386.808 178.947,387.020 175.946 C 387.261 172.558,387.222 172.128,386.678 172.128 C 386.043 172.128,385.781 170.464,386.359 170.107 C 386.758 169.860,386.449 166.855,386.024 166.855 C 385.839 166.855,385.687 165.753,385.687 164.407 C 385.687 163.060,385.526 161.959,385.328 161.959 C 385.119 161.959,385.063 161.174,385.193 160.075 C 385.345 158.787,385.280 158.192,384.987 158.192 C 384.729 158.192,384.557 157.514,384.557 156.497 C 384.557 155.565,384.408 154.802,384.225 154.802 C 384.042 154.802,383.774 153.531,383.628 151.977 C 383.482 150.424,383.208 149.153,383.019 149.153 C 382.829 149.153,382.674 148.475,382.674 147.646 C 382.674 146.817,382.501 146.139,382.290 146.139 C 382.069 146.139,382.007 145.741,382.143 145.198 C 382.320 144.490,382.231 144.256,381.783 144.256 C 381.321 144.256,381.237 144.001,381.412 143.126 C 381.556 142.406,381.485 141.996,381.215 141.996 C 380.982 141.996,380.791 141.498,380.791 140.889 C 380.791 140.279,380.637 139.686,380.450 139.570 C 380.262 139.454,380.197 139.020,380.305 138.606 C 380.415 138.185,380.317 137.853,380.082 137.853 C 379.850 137.853,379.661 137.429,379.661 136.911 C 379.661 136.394,379.473 135.970,379.242 135.970 C 378.966 135.970,378.910 135.510,379.078 134.615 C 379.250 133.696,379.203 133.339,378.932 133.507 C 378.688 133.657,378.531 133.376,378.531 132.791 C 378.531 132.260,378.362 131.827,378.154 131.827 C 377.947 131.827,377.778 131.403,377.778 130.885 C 377.778 130.367,377.632 129.944,377.453 129.944 C 377.275 129.944,377.210 129.520,377.309 129.002 C 377.414 128.452,377.314 128.060,377.068 128.060 C 376.837 128.060,376.648 127.806,376.648 127.495 C 376.648 127.185,376.459 126.930,376.227 126.930 C 375.982 126.930,375.882 126.538,375.987 125.989 C 376.099 125.400,375.994 125.047,375.706 125.047 C 375.418 125.047,375.313 124.695,375.426 124.105 C 375.531 123.556,375.431 123.164,375.185 123.164 C 374.954 123.164,374.765 122.910,374.765 122.599 C 374.765 122.288,374.619 122.034,374.440 122.034 C 374.262 122.034,374.197 121.610,374.296 121.092 C 374.401 120.543,374.301 120.151,374.055 120.151 C 373.824 120.151,373.635 119.896,373.635 119.586 C 373.635 119.275,373.462 119.021,373.251 119.021 C 373.029 119.021,372.967 118.622,373.103 118.079 C 373.249 117.499,373.179 117.137,372.922 117.137 C 372.693 117.137,372.505 116.883,372.505 116.573 C 372.505 116.262,372.355 116.008,372.172 116.008 C 371.792 116.008,371.260 114.565,371.359 113.804 C 371.395 113.524,371.266 113.394,371.072 113.514 C 370.878 113.634,370.623 113.019,370.506 112.147 C 370.389 111.276,370.113 110.502,369.892 110.429 C 369.672 110.355,369.492 110.055,369.492 109.761 C 369.492 109.468,369.336 109.228,369.145 109.228 C 368.954 109.228,368.686 108.720,368.550 108.098 C 368.414 107.477,367.958 106.728,367.538 106.434 C 367.117 106.139,366.886 105.715,367.025 105.491 C 367.163 105.268,367.017 105.085,366.701 105.085 C 366.344 105.085,366.208 104.870,366.342 104.520 C 366.461 104.209,366.391 103.955,366.186 103.955 C 365.785 103.955,365.230 102.561,365.324 101.789 C 365.356 101.530,365.218 101.318,365.018 101.318 C 364.818 101.318,364.551 100.843,364.423 100.261 C 364.295 99.680,363.858 98.965,363.451 98.672 C 363.045 98.379,362.712 97.922,362.712 97.657 C 362.712 97.392,362.548 97.175,362.347 97.175 C 362.146 97.175,362.076 96.931,362.190 96.633 C 362.308 96.326,362.059 95.879,361.613 95.601 C 361.182 95.331,360.829 94.972,360.829 94.802 C 360.829 94.633,361.024 94.615,361.263 94.763 C 361.533 94.929,361.596 94.866,361.430 94.597 C 361.282 94.358,360.932 94.162,360.653 94.162 C 360.340 94.162,360.218 93.888,360.333 93.445 C 360.462 92.954,360.278 92.651,359.752 92.484 C 359.309 92.343,359.067 92.024,359.180 91.728 C 359.295 91.430,359.045 91.112,358.580 90.964 C 358.028 90.789,357.850 90.504,357.999 90.035 C 358.147 89.566,357.979 89.298,357.449 89.159 C 357.005 89.043,356.685 88.646,356.685 88.211 C 356.685 87.800,356.431 87.365,356.121 87.246 C 355.810 87.127,355.556 86.696,355.556 86.290 C 355.556 85.883,355.225 85.445,354.821 85.317 C 354.399 85.183,354.172 84.864,354.286 84.566 C 354.398 84.274,354.062 83.771,353.514 83.412 C 352.979 83.062,352.542 82.468,352.542 82.091 C 352.542 81.715,352.214 81.302,351.812 81.175 C 351.411 81.048,350.895 80.376,350.666 79.683 C 350.432 78.974,349.928 78.338,349.513 78.229 C 349.082 78.117,348.776 77.714,348.776 77.259 C 348.776 76.832,348.267 76.106,347.646 75.647 C 347.024 75.187,346.516 74.581,346.516 74.299 C 346.516 73.730,344.729 71.940,344.161 71.940 C 343.962 71.940,343.888 71.707,343.998 71.422 C 344.118 71.108,343.962 70.922,343.603 70.951 C 343.255 70.979,342.892 70.570,342.724 69.963 C 342.567 69.394,341.983 68.546,341.426 68.080 C 338.729 65.819,336.091 63.040,336.241 62.618 C 336.342 62.336,336.088 62.147,335.608 62.147 C 335.054 62.147,334.841 61.944,334.918 61.488 C 334.993 61.039,334.818 60.864,334.369 60.939 C 333.911 61.016,333.710 60.802,333.710 60.240 C 333.710 59.675,333.539 59.495,333.145 59.647 C 332.761 59.794,332.580 59.626,332.580 59.122 C 332.580 58.693,332.326 58.380,331.977 58.380 C 331.646 58.380,330.601 57.618,329.655 56.685 C 328.710 55.753,328.059 54.991,328.210 54.991 C 328.770 54.991,325.950 52.644,324.953 52.281 C 324.383 52.074,323.917 51.775,323.917 51.617 C 323.917 51.079,321.288 48.539,320.949 48.748 C 320.763 48.863,320.160 48.365,319.608 47.642 C 319.020 46.871,318.277 46.328,317.809 46.328 C 317.371 46.328,317.111 46.229,317.232 46.108 C 317.544 45.795,316.114 44.444,315.470 44.444 C 315.174 44.444,314.588 44.007,314.167 43.471 C 313.746 42.936,313.225 42.607,313.009 42.740 C 312.794 42.873,312.618 42.829,312.618 42.641 C 312.618 41.961,311.188 40.672,310.658 40.875 C 310.315 41.007,309.943 40.705,309.646 40.053 C 309.295 39.282,309.097 39.150,308.863 39.529 C 308.619 39.924,308.439 39.858,308.045 39.227 C 307.767 38.782,307.345 38.418,307.106 38.418 C 306.867 38.418,306.574 38.164,306.455 37.853 C 306.336 37.542,305.912 37.288,305.514 37.288 C 305.115 37.288,304.691 37.034,304.572 36.723 C 304.453 36.412,304.022 36.158,303.615 36.158 C 303.201 36.158,302.768 35.820,302.632 35.389 C 302.461 34.853,302.178 34.687,301.695 34.840 C 301.220 34.991,300.930 34.831,300.771 34.330 C 300.625 33.871,300.055 33.510,299.234 33.356 C 298.516 33.221,297.928 32.949,297.928 32.751 C 297.928 32.554,297.692 32.392,297.404 32.392 C 297.115 32.392,296.782 32.137,296.662 31.827 C 296.543 31.516,296.101 31.262,295.680 31.262 C 295.260 31.262,294.915 31.074,294.915 30.845 C 294.915 30.616,294.642 30.533,294.308 30.661 C 293.866 30.830,293.763 30.733,293.929 30.300 C 294.105 29.842,293.985 29.761,293.406 29.944 C 292.976 30.081,292.655 30.011,292.655 29.781 C 292.655 29.559,292.401 29.379,292.090 29.379 C 291.780 29.379,291.525 29.212,291.525 29.009 C 291.525 28.806,291.102 28.533,290.584 28.403 C 290.066 28.273,289.642 28.016,289.642 27.831 C 289.642 27.646,289.402 27.495,289.109 27.495 C 288.815 27.495,288.515 27.315,288.441 27.094 C 288.368 26.874,287.595 26.598,286.723 26.481 C 285.829 26.361,285.237 26.107,285.366 25.900 C 285.504 25.677,285.278 25.632,284.793 25.785 C 284.318 25.936,283.992 25.876,283.992 25.637 C 283.992 25.416,283.738 25.235,283.427 25.235 C 283.117 25.235,282.863 25.048,282.863 24.818 C 282.863 24.589,282.608 24.499,282.298 24.618 C 281.957 24.749,281.733 24.620,281.733 24.294 C 281.733 23.967,281.508 23.839,281.168 23.969 C 280.857 24.088,280.603 23.998,280.603 23.769 C 280.603 23.540,280.254 23.352,279.827 23.352 C 279.401 23.352,279.144 23.202,279.258 23.018 C 279.485 22.652,278.260 22.235,276.930 22.227 C 276.464 22.225,276.083 22.053,276.083 21.846 C 276.083 21.638,275.829 21.469,275.518 21.469 C 275.207 21.469,274.953 21.289,274.953 21.069 C 274.953 20.848,274.656 20.697,274.294 20.732 C 273.340 20.823,271.940 20.314,271.940 19.874 C 271.940 19.667,271.601 19.586,271.187 19.695 C 270.773 19.803,270.339 19.738,270.223 19.550 C 270.107 19.363,269.683 19.209,269.281 19.209 C 268.879 19.209,268.550 19.040,268.550 18.832 C 268.550 18.625,268.284 18.456,267.958 18.456 C 267.632 18.456,267.099 18.189,266.773 17.863 C 266.292 17.382,266.121 17.364,265.864 17.769 C 265.626 18.145,265.547 18.152,265.542 17.797 C 265.539 17.538,265.113 17.326,264.595 17.326 C 264.077 17.326,263.653 17.137,263.653 16.905 C 263.653 16.660,263.262 16.560,262.712 16.665 C 262.194 16.764,261.770 16.699,261.770 16.520 C 261.770 16.342,261.347 16.196,260.829 16.196 C 260.311 16.196,259.887 16.026,259.887 15.819 C 259.887 15.612,259.463 15.443,258.945 15.443 C 258.427 15.443,258.004 15.252,258.004 15.019 C 258.004 14.749,257.594 14.677,256.874 14.821 C 256.236 14.949,255.744 14.887,255.744 14.680 C 255.744 14.478,255.320 14.313,254.802 14.313 C 254.284 14.313,253.861 14.130,253.861 13.906 C 253.861 13.650,253.442 13.592,252.731 13.748 C 252.020 13.904,251.601 13.845,251.601 13.589 C 251.601 13.366,251.008 13.183,250.282 13.183 C 249.557 13.183,248.964 12.994,248.964 12.763 C 248.964 12.512,248.513 12.410,247.834 12.510 C 247.021 12.629,246.704 12.522,246.704 12.128 C 246.704 11.699,246.375 11.632,245.198 11.821 C 244.274 11.968,243.691 11.914,243.691 11.681 C 243.691 11.471,243.013 11.299,242.185 11.299 C 241.317 11.299,240.678 11.119,240.678 10.874 C 240.678 10.582,240.090 10.527,238.795 10.699 C 237.588 10.859,236.911 10.809,236.911 10.559 C 236.911 10.342,236.068 10.169,235.006 10.169 C 233.832 10.169,233.190 10.025,233.333 9.793 C 233.479 9.556,232.647 9.416,231.096 9.416 C 229.622 9.416,228.625 9.257,228.625 9.021 C 228.625 8.760,227.846 8.714,226.326 8.886 C 224.721 9.067,223.945 9.012,223.754 8.703 C 223.570 8.406,222.067 8.259,219.190 8.256 C 216.278 8.253,214.797 8.106,214.578 7.798 C 214.328 7.447,214.212 7.451,214.064 7.815 C 213.959 8.074,213.708 8.286,213.506 8.286 C 213.304 8.286,213.243 8.117,213.371 7.910 C 213.499 7.702,213.354 7.533,213.048 7.533 C 212.742 7.533,212.407 7.745,212.302 8.004 C 212.150 8.380,212.106 8.380,212.082 8.004 C 212.061 7.669,211.183 7.533,209.040 7.533 L 206.026 7.533 206.026 61.044 " stroke="none" fill="#2cc4cc" fill-rule="evenodd"></path><path id="path2" d="M195.480 115.909 C 194.548 115.989,193.624 116.214,193.427 116.408 C 193.231 116.602,192.520 116.761,191.849 116.761 C 191.178 116.761,190.536 116.911,190.423 117.093 C 190.310 117.276,189.255 117.546,188.080 117.693 C 186.001 117.953,185.656 118.057,183.915 118.955 C 183.458 119.190,182.398 119.493,181.561 119.627 C 180.723 119.761,180.038 120.018,180.038 120.199 C 180.038 120.379,179.767 120.527,179.435 120.527 C 179.104 120.527,178.257 120.782,177.552 121.092 C 176.848 121.403,175.695 121.911,174.990 122.222 C 174.286 122.533,173.523 122.787,173.295 122.787 C 173.068 122.787,172.881 122.943,172.881 123.134 C 172.881 123.325,172.385 123.590,171.777 123.723 C 171.170 123.856,170.450 124.235,170.177 124.565 C 169.903 124.894,169.171 125.394,168.550 125.676 C 167.390 126.202,166.059 126.971,165.725 127.309 C 165.206 127.834,162.728 129.567,162.496 129.567 C 162.160 129.567,157.354 133.723,156.949 134.363 C 156.784 134.625,156.496 134.840,156.310 134.840 C 155.805 134.840,154.049 136.556,154.049 137.049 C 154.049 137.284,153.795 137.476,153.484 137.476 C 153.173 137.476,152.919 137.646,152.919 137.853 C 152.919 138.060,152.283 138.872,151.507 139.658 C 149.922 141.259,147.373 144.273,146.516 145.557 C 145.237 147.474,144.451 148.598,144.265 148.776 C 143.889 149.135,143.103 150.474,142.883 151.130 C 142.761 151.492,142.512 151.789,142.329 151.789 C 142.146 151.789,141.996 151.991,141.996 152.237 C 141.996 152.819,139.635 157.589,139.266 157.753 C 139.110 157.822,138.983 158.050,138.983 158.261 C 138.983 158.746,137.788 161.332,137.448 161.582 C 137.307 161.685,137.072 162.490,136.925 163.369 C 136.778 164.248,136.518 165.054,136.347 165.160 C 136.175 165.266,135.921 166.029,135.782 166.855 C 135.642 167.681,135.373 168.453,135.184 168.570 C 134.995 168.687,134.840 169.271,134.840 169.868 C 134.840 170.465,134.684 171.050,134.493 171.168 C 134.302 171.286,134.025 172.525,133.878 173.921 C 133.730 175.317,133.421 176.580,133.189 176.728 C 132.576 177.119,132.603 199.929,133.218 201.167 C 133.650 202.036,134.079 204.554,134.092 206.290 C 134.095 206.746,134.265 207.222,134.469 207.348 C 134.673 207.474,134.840 208.066,134.840 208.663 C 134.840 209.260,134.995 209.844,135.184 209.961 C 135.373 210.078,135.642 210.850,135.782 211.676 C 135.921 212.503,136.190 213.274,136.379 213.391 C 136.568 213.508,136.723 213.865,136.723 214.184 C 136.723 214.788,137.196 215.947,139.024 219.820 C 139.623 221.089,140.113 222.303,140.113 222.520 C 140.113 222.736,140.248 222.969,140.413 223.038 C 140.578 223.107,141.098 223.927,141.567 224.859 C 143.198 228.097,144.070 229.569,144.539 229.868 C 144.798 230.034,145.009 230.386,145.009 230.650 C 145.009 230.914,145.433 231.529,145.951 232.015 C 146.469 232.502,146.893 233.038,146.893 233.208 C 146.893 233.539,147.480 234.270,150.565 237.773 C 151.653 239.009,152.542 240.168,152.542 240.349 C 152.542 240.530,152.797 240.678,153.107 240.678 C 153.418 240.678,153.672 240.932,153.672 241.243 C 153.672 241.554,153.912 241.808,154.206 241.808 C 154.499 241.808,154.796 241.947,154.865 242.118 C 155.017 242.492,161.523 248.243,162.398 248.776 C 162.738 248.983,164.092 249.915,165.406 250.847 C 166.721 251.780,169.068 253.190,170.621 253.982 C 172.175 254.774,173.701 255.564,174.011 255.739 C 175.591 256.625,178.867 258.004,179.394 258.004 C 179.723 258.004,180.086 258.154,180.200 258.338 C 180.313 258.521,181.001 258.783,181.728 258.920 C 182.456 259.056,183.051 259.330,183.051 259.527 C 183.051 259.725,183.549 259.887,184.159 259.887 C 184.768 259.887,185.359 260.037,185.472 260.220 C 185.585 260.403,186.639 260.672,187.815 260.819 C 188.990 260.966,190.221 261.236,190.550 261.419 C 191.474 261.934,197.094 262.620,201.789 262.791 L 206.026 262.946 206.026 245.267 C 206.026 225.221,205.702 226.905,209.585 226.789 C 211.024 226.746,212.380 226.565,212.598 226.386 C 212.816 226.207,213.971 225.940,215.165 225.793 C 216.359 225.645,217.419 225.389,217.521 225.224 C 217.623 225.059,218.364 224.813,219.168 224.677 C 219.971 224.542,220.959 224.123,221.363 223.747 C 221.767 223.371,222.622 222.948,223.264 222.807 C 223.905 222.666,224.640 222.297,224.897 221.988 C 225.154 221.679,225.886 221.175,226.524 220.869 C 228.972 219.694,229.755 219.149,229.755 218.624 C 229.755 218.324,229.972 218.079,230.236 218.079 C 230.773 218.079,235.782 213.167,235.782 212.640 C 235.782 212.455,236.035 212.036,236.345 211.708 C 237.750 210.218,238.766 208.719,238.999 207.790 C 239.139 207.234,239.404 206.780,239.589 206.780 C 239.774 206.780,239.925 206.593,239.925 206.366 C 239.925 206.138,240.179 205.375,240.490 204.671 C 240.800 203.966,241.309 202.813,241.620 202.109 C 241.930 201.404,242.185 200.387,242.185 199.849 C 242.185 199.311,242.354 198.870,242.561 198.870 C 242.768 198.870,242.938 198.226,242.938 197.439 C 242.938 196.652,243.121 195.824,243.345 195.600 C 243.876 195.070,243.863 185.206,243.331 184.211 C 243.115 183.807,242.938 182.967,242.938 182.345 C 242.938 181.722,242.791 181.121,242.611 181.010 C 242.431 180.899,242.173 180.119,242.039 179.276 C 241.904 178.434,241.644 177.456,241.461 177.102 C 241.278 176.749,240.597 175.358,239.949 174.011 C 238.564 171.138,238.202 170.522,236.817 168.686 C 236.248 167.930,235.782 167.144,235.782 166.939 C 235.782 166.734,235.443 166.478,235.030 166.370 C 234.617 166.262,234.168 165.861,234.033 165.478 C 233.697 164.526,231.978 162.712,231.411 162.712 C 231.156 162.712,230.891 162.581,230.822 162.422 C 230.556 161.809,226.884 159.015,225.989 158.745 C 225.471 158.589,224.783 158.158,224.460 157.787 C 224.137 157.416,223.415 156.998,222.855 156.857 C 222.296 156.717,221.745 156.451,221.631 156.267 C 221.518 156.083,221.138 155.931,220.788 155.930 C 220.437 155.929,219.665 155.674,219.072 155.365 C 218.478 155.055,217.707 154.802,217.358 154.802 C 217.009 154.802,216.550 154.629,216.339 154.418 C 216.127 154.206,214.817 153.927,213.426 153.797 C 212.036 153.667,210.809 153.417,210.700 153.240 C 210.591 153.063,209.495 152.919,208.264 152.919 L 206.026 152.919 206.026 134.275 L 206.026 115.631 201.601 115.697 C 199.167 115.733,196.412 115.828,195.480 115.909 " stroke="none" fill="#c5faef" fill-rule="evenodd"></path><path id="path3" d="M193.370 7.972 C 193.263 8.145,194.288 8.286,195.646 8.286 C 197.124 8.286,198.117 8.127,198.117 7.890 C 198.117 7.419,193.664 7.496,193.370 7.972 M214.689 7.910 C 214.689 8.117,215.621 8.286,216.761 8.286 C 217.900 8.286,218.832 8.117,218.832 7.910 C 218.832 7.702,217.900 7.533,216.761 7.533 C 215.621 7.533,214.689 7.702,214.689 7.910 M185.311 8.582 C 185.311 8.745,186.243 8.917,187.382 8.964 C 188.590 9.015,189.454 8.892,189.454 8.669 C 189.454 8.456,188.533 8.286,187.382 8.286 C 186.243 8.286,185.311 8.419,185.311 8.582 M223.729 8.663 C 223.729 8.870,224.312 9.040,225.025 9.040 C 225.738 9.040,226.426 8.870,226.554 8.663 C 226.694 8.435,226.181 8.286,225.258 8.286 C 224.417 8.286,223.729 8.456,223.729 8.663 M181.356 9.040 C 181.224 9.253,181.540 9.416,182.087 9.416 C 182.617 9.416,183.051 9.247,183.051 9.040 C 183.051 8.832,182.722 8.663,182.320 8.663 C 181.918 8.663,181.484 8.832,181.356 9.040 M228.625 9.040 C 228.625 9.247,229.144 9.416,229.777 9.416 C 230.450 9.416,230.833 9.259,230.697 9.040 C 230.569 8.832,230.050 8.663,229.545 8.663 C 229.039 8.663,228.625 8.832,228.625 9.040 M177.589 9.793 C 177.457 10.006,177.774 10.169,178.321 10.169 C 178.851 10.169,179.284 10.000,179.284 9.793 C 179.284 9.586,178.955 9.416,178.553 9.416 C 178.151 9.416,177.717 9.586,177.589 9.793 M233.522 9.793 C 233.522 10.000,233.945 10.169,234.463 10.169 C 234.981 10.169,235.405 10.000,235.405 9.793 C 235.405 9.586,234.981 9.416,234.463 9.416 C 233.945 9.416,233.522 9.586,233.522 9.793 M170.245 10.923 C 170.245 11.130,170.669 11.299,171.186 11.299 C 171.704 11.299,172.128 11.130,172.128 10.923 C 172.128 10.716,171.704 10.546,171.186 10.546 C 170.669 10.546,170.245 10.716,170.245 10.923 M240.678 10.923 C 240.678 11.130,240.932 11.299,241.243 11.299 C 241.554 11.299,241.808 11.130,241.808 10.923 C 241.808 10.716,241.554 10.546,241.243 10.546 C 240.932 10.546,240.678 10.716,240.678 10.923 M167.985 11.676 C 167.985 11.883,168.239 12.053,168.550 12.053 C 168.861 12.053,169.115 11.883,169.115 11.676 C 169.115 11.469,168.861 11.299,168.550 11.299 C 168.239 11.299,167.985 11.469,167.985 11.676 M243.691 11.676 C 243.691 11.883,243.945 12.053,244.256 12.053 C 244.567 12.053,244.821 11.883,244.821 11.676 C 244.821 11.469,244.567 11.299,244.256 11.299 C 243.945 11.299,243.691 11.469,243.691 11.676 M162.335 12.806 C 162.335 13.013,162.589 13.183,162.900 13.183 C 163.211 13.183,163.465 13.013,163.465 12.806 C 163.465 12.599,163.211 12.429,162.900 12.429 C 162.589 12.429,162.335 12.599,162.335 12.806 M157.627 13.936 C 157.499 14.143,157.753 14.313,158.192 14.313 C 158.631 14.313,158.885 14.143,158.757 13.936 C 158.629 13.729,158.375 13.559,158.192 13.559 C 158.009 13.559,157.755 13.729,157.627 13.936 M155.179 14.689 C 155.179 14.896,155.433 15.066,155.744 15.066 C 156.055 15.066,156.309 14.896,156.309 14.689 C 156.309 14.482,156.055 14.313,155.744 14.313 C 155.433 14.313,155.179 14.482,155.179 14.689 M147.834 16.949 C 147.706 17.156,147.950 17.326,148.377 17.326 C 148.804 17.326,149.153 17.156,149.153 16.949 C 149.153 16.742,148.908 16.573,148.610 16.573 C 148.311 16.573,147.962 16.742,147.834 16.949 M146.139 17.702 C 146.139 17.910,146.394 18.079,146.704 18.079 C 147.015 18.079,147.269 17.910,147.269 17.702 C 147.269 17.495,147.015 17.326,146.704 17.326 C 146.394 17.326,146.139 17.495,146.139 17.702 M268.550 18.832 C 268.550 19.040,268.804 19.209,269.115 19.209 C 269.426 19.209,269.680 19.040,269.680 18.832 C 269.680 18.625,269.426 18.456,269.115 18.456 C 268.804 18.456,268.550 18.625,268.550 18.832 M109.994 34.926 C 109.500 35.482,109.513 35.521,110.118 35.288 C 110.491 35.145,110.867 35.028,110.954 35.028 C 111.040 35.028,111.111 34.859,111.111 34.652 C 111.111 34.097,110.623 34.217,109.994 34.926 M108.110 36.056 C 107.617 36.612,107.630 36.650,108.235 36.418 C 108.608 36.275,108.984 36.158,109.070 36.158 C 109.157 36.158,109.228 35.989,109.228 35.782 C 109.228 35.227,108.739 35.347,108.110 36.056 M102.825 39.736 C 102.563 40.052,102.523 40.301,102.733 40.301 C 102.940 40.301,103.320 40.047,103.578 39.736 C 103.840 39.421,103.880 39.171,103.670 39.171 C 103.463 39.171,103.083 39.426,102.825 39.736 M100.942 40.866 C 100.433 41.480,100.554 41.556,101.476 41.203 C 101.803 41.077,102.072 40.823,102.072 40.638 C 102.072 40.117,101.461 40.240,100.942 40.866 M91.525 48.023 C 91.259 48.343,91.126 48.691,91.230 48.794 C 91.333 48.898,91.636 48.720,91.902 48.399 C 92.168 48.078,92.301 47.731,92.198 47.628 C 92.094 47.524,91.792 47.702,91.525 48.023 M87.453 51.412 C 86.564 52.435,86.955 52.728,87.920 51.762 C 88.443 51.240,88.724 50.471,88.392 50.471 C 88.326 50.471,87.903 50.895,87.453 51.412 M324.207 51.601 C 324.652 52.015,325.134 52.354,325.278 52.354 C 325.422 52.354,325.234 52.015,324.859 51.601 C 324.484 51.186,324.002 50.847,323.788 50.847 C 323.574 50.847,323.762 51.186,324.207 51.601 M82.163 56.174 C 81.093 57.245,80.294 58.197,80.387 58.291 C 80.481 58.384,81.434 57.585,82.504 56.515 C 83.574 55.445,84.373 54.492,84.279 54.399 C 84.186 54.305,83.233 55.104,82.163 56.174 M328.674 55.546 C 328.783 55.830,329.104 56.152,329.388 56.261 C 329.714 56.386,329.832 56.268,329.707 55.942 C 329.598 55.658,329.276 55.336,328.992 55.227 C 328.666 55.102,328.548 55.220,328.674 55.546 M330.320 56.758 C 330.320 56.965,330.659 57.440,331.073 57.815 C 331.488 58.190,331.827 58.412,331.827 58.308 C 331.827 58.204,331.488 57.728,331.073 57.250 C 330.659 56.773,330.320 56.551,330.320 56.758 M78.269 59.855 C 77.929 60.252,77.736 60.662,77.841 60.766 C 78.069 60.994,79.473 59.842,79.473 59.427 C 79.473 58.910,78.905 59.112,78.269 59.855 M74.168 63.997 C 71.757 66.466,70.961 67.420,71.314 67.420 C 71.568 67.420,77.213 61.858,77.213 61.608 C 77.213 61.060,76.461 61.650,74.168 63.997 M338.133 64.629 C 338.030 64.732,338.453 65.326,339.075 65.947 C 339.696 66.569,340.289 66.992,340.393 66.889 C 340.497 66.785,340.073 66.192,339.451 65.571 C 338.830 64.949,338.237 64.525,338.133 64.629 M342.750 69.794 C 342.750 69.957,343.173 70.546,343.691 71.105 C 344.209 71.663,344.633 71.988,344.633 71.825 C 344.633 71.663,344.209 71.073,343.691 70.515 C 343.173 69.956,342.750 69.632,342.750 69.794 M68.069 70.814 C 67.364 71.637,67.263 71.946,67.702 71.928 C 68.096 71.911,69.410 70.056,69.028 70.056 C 68.857 70.056,68.425 70.397,68.069 70.814 M62.229 77.975 C 61.788 78.681,61.808 78.702,62.515 78.261 C 63.274 77.787,63.535 77.213,62.991 77.213 C 62.833 77.213,62.491 77.556,62.229 77.975 M348.776 77.518 C 348.776 77.720,349.044 77.989,349.372 78.114 C 349.739 78.255,349.911 78.171,349.820 77.896 C 349.632 77.333,348.776 77.023,348.776 77.518 M60.492 80.068 C 60.139 80.990,60.215 81.112,60.829 80.603 C 61.455 80.083,61.578 79.473,61.057 79.473 C 60.872 79.473,60.618 79.741,60.492 80.068 M58.757 82.486 C 58.458 82.671,58.339 82.947,58.492 83.099 C 58.645 83.252,58.967 83.180,59.209 82.938 C 59.778 82.369,59.460 82.051,58.757 82.486 M56.972 84.954 C 56.715 85.232,56.630 85.535,56.783 85.628 C 56.937 85.721,57.272 85.569,57.529 85.291 C 57.786 85.013,57.871 84.710,57.718 84.617 C 57.564 84.524,57.229 84.676,56.972 84.954 M54.410 88.537 C 54.274 88.758,54.252 89.029,54.363 89.140 C 54.633 89.410,55.367 88.934,55.367 88.490 C 55.367 88.009,54.717 88.041,54.410 88.537 M44.513 105.920 C 44.268 106.165,44.068 106.586,44.068 106.855 C 44.068 107.124,43.898 107.345,43.691 107.345 C 43.484 107.345,43.315 107.694,43.315 108.120 C 43.315 109.169,43.922 108.728,44.244 107.446 C 44.387 106.877,44.698 106.291,44.934 106.145 C 45.171 105.999,45.273 105.788,45.162 105.676 C 45.050 105.565,44.759 105.675,44.513 105.920 M200.000 115.281 C 197.404 115.478,197.533 115.501,201.601 115.563 L 206.026 115.631 206.026 134.275 L 206.026 152.919 208.264 152.919 C 209.495 152.919,210.591 153.063,210.700 153.240 C 210.809 153.417,212.036 153.667,213.426 153.797 C 214.817 153.927,216.127 154.206,216.339 154.418 C 216.550 154.629,217.009 154.802,217.358 154.802 C 217.707 154.802,218.478 155.055,219.072 155.365 C 219.665 155.674,220.437 155.929,220.788 155.930 C 221.138 155.931,221.518 156.083,221.631 156.267 C 221.745 156.451,222.296 156.717,222.855 156.857 C 223.415 156.998,224.137 157.416,224.460 157.787 C 224.783 158.158,225.471 158.589,225.989 158.745 C 226.884 159.015,230.556 161.809,230.822 162.422 C 230.891 162.581,231.156 162.712,231.411 162.712 C 231.978 162.712,233.697 164.526,234.033 165.478 C 234.168 165.861,234.617 166.262,235.030 166.370 C 235.443 166.478,235.782 166.734,235.782 166.939 C 235.782 167.144,236.248 167.930,236.817 168.686 C 238.202 170.522,238.564 171.138,239.949 174.011 C 240.597 175.358,241.278 176.749,241.461 177.102 C 241.644 177.456,241.904 178.434,242.039 179.276 C 242.173 180.119,242.431 180.899,242.611 181.010 C 242.791 181.121,242.938 181.722,242.938 182.345 C 242.938 182.967,243.115 183.807,243.331 184.211 C 243.863 185.206,243.876 195.070,243.345 195.600 C 243.121 195.824,242.938 196.652,242.938 197.439 C 242.938 198.226,242.768 198.870,242.561 198.870 C 242.354 198.870,242.185 199.311,242.185 199.849 C 242.185 200.387,241.930 201.404,241.620 202.109 C 241.309 202.813,240.800 203.966,240.490 204.671 C 240.179 205.375,239.925 206.138,239.925 206.366 C 239.925 206.593,239.774 206.780,239.589 206.780 C 239.404 206.780,239.139 207.234,238.999 207.790 C 238.766 208.719,237.750 210.218,236.345 211.708 C 236.035 212.036,235.782 212.464,235.782 212.659 C 235.782 213.184,230.755 218.079,230.217 218.079 C 229.963 218.079,229.755 218.324,229.755 218.624 C 229.755 219.149,228.972 219.694,226.524 220.869 C 225.886 221.175,225.154 221.679,224.897 221.988 C 224.640 222.297,223.905 222.666,223.264 222.807 C 222.622 222.948,221.767 223.371,221.363 223.747 C 220.959 224.123,219.971 224.542,219.168 224.677 C 218.364 224.813,217.623 225.059,217.521 225.224 C 217.419 225.389,216.359 225.645,215.165 225.793 C 213.971 225.940,212.816 226.207,212.598 226.386 C 212.380 226.565,211.024 226.746,209.585 226.789 C 205.702 226.905,206.026 225.224,206.026 245.244 L 206.026 262.900 204.080 262.900 C 203.010 262.900,202.247 263.013,202.385 263.151 C 202.748 263.513,205.770 263.618,206.215 263.283 C 206.422 263.127,209.043 262.889,212.040 262.755 C 215.037 262.620,217.656 262.344,217.860 262.140 C 218.063 261.937,219.033 261.770,220.015 261.770 C 220.998 261.770,221.899 261.613,222.018 261.420 C 222.137 261.227,223.166 260.953,224.305 260.811 C 225.444 260.669,226.462 260.412,226.567 260.241 C 226.673 260.070,227.520 259.816,228.450 259.677 C 229.380 259.538,230.234 259.274,230.347 259.090 C 230.460 258.907,230.882 258.757,231.284 258.757 C 231.686 258.757,232.015 258.606,232.015 258.421 C 232.015 258.237,232.481 257.973,233.051 257.836 C 234.716 257.436,245.154 252.106,247.458 250.480 C 249.276 249.197,249.354 249.137,250.897 247.847 C 251.650 247.219,252.382 246.704,252.525 246.704 C 252.981 246.704,262.900 236.793,262.900 236.337 C 262.900 236.096,263.250 235.582,263.678 235.195 C 264.794 234.184,268.363 229.178,269.167 227.495 C 269.315 227.185,269.545 226.846,269.678 226.742 C 270.146 226.376,274.200 217.861,274.200 217.243 C 274.200 216.899,274.356 216.520,274.547 216.402 C 274.739 216.284,275.014 215.644,275.160 214.980 C 275.423 213.782,275.585 213.362,276.375 211.817 C 276.600 211.376,276.893 210.359,277.026 209.557 C 277.158 208.754,277.413 207.759,277.592 207.345 C 277.996 206.408,278.719 202.062,278.970 199.058 C 279.074 197.815,279.315 196.637,279.504 196.441 C 279.920 196.009,279.973 182.418,279.560 182.163 C 279.400 182.064,279.218 180.831,279.155 179.423 C 279.092 178.014,278.933 176.689,278.803 176.479 C 278.673 176.268,278.543 175.839,278.514 175.525 C 278.374 173.994,277.850 171.522,277.594 171.186 C 277.437 170.979,277.192 170.009,277.050 169.029 C 276.909 168.050,276.633 167.150,276.438 167.030 C 276.243 166.909,276.083 166.407,276.083 165.913 C 276.083 165.420,275.933 164.923,275.749 164.810 C 275.565 164.696,275.304 164.012,275.169 163.290 C 274.964 162.201,273.207 158.223,271.918 155.932 C 271.743 155.621,271.225 154.605,270.766 153.672 C 270.307 152.740,269.579 151.472,269.147 150.855 C 268.325 149.681,267.624 148.552,267.197 147.717 C 266.946 147.225,266.626 146.820,264.428 144.206 C 263.795 143.454,263.277 142.673,263.277 142.471 C 263.277 141.995,253.096 131.827,252.620 131.827 C 252.420 131.827,251.627 131.276,250.858 130.603 C 248.921 128.908,247.855 128.060,247.661 128.060 C 247.570 128.060,246.767 127.571,245.876 126.972 C 244.501 126.049,242.268 124.776,239.282 123.214 C 237.069 122.056,233.539 120.527,233.080 120.527 C 232.784 120.527,232.381 120.384,232.185 120.210 C 231.988 120.035,230.810 119.601,229.567 119.246 C 228.324 118.891,227.031 118.452,226.694 118.271 C 225.951 117.872,223.334 117.330,222.721 117.449 C 222.478 117.496,222.171 117.360,222.040 117.147 C 221.909 116.935,221.082 116.761,220.204 116.761 C 219.325 116.761,218.445 116.604,218.249 116.411 C 218.052 116.219,215.433 115.952,212.429 115.817 C 209.426 115.683,206.714 115.470,206.403 115.343 C 205.657 115.039,203.466 115.017,200.000 115.281 M188.512 117.029 C 188.098 117.129,187.604 117.357,187.415 117.537 C 186.963 117.965,189.906 117.520,190.377 117.088 C 190.755 116.742,189.829 116.713,188.512 117.029 M182.486 118.913 C 182.072 119.012,181.563 119.259,181.356 119.461 C 180.880 119.924,183.083 119.444,183.597 118.972 C 183.982 118.619,183.757 118.607,182.486 118.913 M179.002 120.162 C 177.878 120.614,177.925 120.843,179.096 120.619 C 179.614 120.520,180.038 120.290,180.038 120.107 C 180.038 119.924,179.995 119.785,179.944 119.798 C 179.892 119.811,179.468 119.975,179.002 120.162 M168.644 124.930 C 168.282 125.025,167.985 125.259,167.985 125.451 C 167.985 125.957,168.488 125.880,169.325 125.247 C 170.058 124.693,169.876 124.608,168.644 124.930 M35.405 126.177 C 35.405 126.591,35.574 126.930,35.782 126.930 C 35.989 126.930,36.158 126.591,36.158 126.177 C 36.158 125.763,35.989 125.424,35.782 125.424 C 35.574 125.424,35.405 125.763,35.405 126.177 M376.063 125.833 C 375.923 126.058,375.998 126.431,376.229 126.662 C 376.536 126.970,376.648 126.861,376.648 126.252 C 376.648 125.343,376.452 125.203,376.063 125.833 M163.350 128.637 C 162.769 129.148,162.430 129.561,162.597 129.553 C 163.047 129.533,165.224 127.686,164.783 127.697 C 164.576 127.703,163.931 128.126,163.350 128.637 M158.945 131.941 C 158.220 132.614,157.214 133.453,156.708 133.805 C 156.203 134.158,155.900 134.556,156.034 134.691 C 156.169 134.826,157.006 134.243,157.895 133.397 C 158.783 132.551,159.849 131.602,160.264 131.289 C 160.678 130.977,160.847 130.720,160.640 130.719 C 160.433 130.718,159.670 131.268,158.945 131.941 M32.392 135.217 C 32.392 135.631,32.561 135.970,32.768 135.970 C 32.976 135.970,33.145 135.631,33.145 135.217 C 33.145 134.802,32.976 134.463,32.768 134.463 C 32.561 134.463,32.392 134.802,32.392 135.217 M31.806 136.756 C 31.667 136.981,31.742 137.354,31.973 137.585 C 32.280 137.892,32.392 137.784,32.392 137.175 C 32.392 136.266,32.196 136.126,31.806 136.756 M151.664 138.669 C 151.284 139.083,151.058 139.507,151.161 139.611 C 151.349 139.799,152.919 138.398,152.919 138.041 C 152.919 137.649,152.328 137.944,151.664 138.669 M30.709 140.977 C 30.547 141.348,30.521 141.758,30.650 141.887 C 31.033 142.269,31.341 141.732,31.165 140.990 C 31.009 140.332,30.989 140.331,30.709 140.977 M380.791 141.221 C 380.791 141.647,380.960 141.996,381.168 141.996 C 381.375 141.996,381.544 141.752,381.544 141.453 C 381.544 141.155,381.375 140.806,381.168 140.678 C 380.960 140.550,380.791 140.794,380.791 141.221 M148.777 142.183 C 148.292 142.700,147.977 143.207,148.079 143.308 C 148.181 143.410,148.639 142.987,149.096 142.368 C 150.110 140.997,149.968 140.915,148.777 142.183 M29.579 145.873 C 29.417 146.245,29.391 146.654,29.520 146.783 C 29.903 147.166,30.211 146.629,30.035 145.886 C 29.879 145.228,29.859 145.228,29.579 145.873 M382.674 148.588 C 382.674 148.898,382.844 149.153,383.051 149.153 C 383.258 149.153,383.427 148.898,383.427 148.588 C 383.427 148.277,383.258 148.023,383.051 148.023 C 382.844 148.023,382.674 148.277,382.674 148.588 M28.249 151.202 C 28.249 151.732,28.418 152.166,28.625 152.166 C 28.832 152.166,29.002 151.837,29.002 151.435 C 29.002 151.033,28.832 150.599,28.625 150.471 C 28.412 150.339,28.249 150.655,28.249 151.202 M140.670 154.307 C 140.105 155.512,139.489 156.794,139.300 157.156 C 139.111 157.519,139.090 157.810,139.252 157.804 C 139.627 157.790,142.131 152.551,141.882 152.302 C 141.780 152.201,141.235 153.103,140.670 154.307 M27.495 154.237 C 27.495 154.755,27.665 155.179,27.872 155.179 C 28.079 155.179,28.249 154.755,28.249 154.237 C 28.249 153.719,28.079 153.296,27.872 153.296 C 27.665 153.296,27.495 153.719,27.495 154.237 M138.427 158.703 C 138.318 159.044,138.150 159.576,138.053 159.887 C 137.956 160.198,137.960 160.452,138.063 160.452 C 138.351 160.452,139.028 158.488,138.814 158.274 C 138.710 158.170,138.535 158.363,138.427 158.703 M26.365 161.394 C 26.365 161.704,26.535 161.959,26.742 161.959 C 26.949 161.959,27.119 161.704,27.119 161.394 C 27.119 161.083,26.949 160.829,26.742 160.829 C 26.535 160.829,26.365 161.083,26.365 161.394 M136.383 163.898 C 135.884 165.330,135.865 165.614,136.298 165.141 C 136.658 164.748,137.210 162.712,136.956 162.712 C 136.868 162.712,136.611 163.246,136.383 163.898 M25.863 164.470 C 25.466 164.866,25.571 166.855,25.989 166.855 C 26.196 166.855,26.365 166.262,26.365 165.537 C 26.365 164.182,26.297 164.036,25.863 164.470 M385.687 165.537 C 385.687 166.262,385.857 166.855,386.064 166.855 C 386.271 166.855,386.441 166.262,386.441 165.537 C 386.441 164.812,386.271 164.218,386.064 164.218 C 385.857 164.218,385.687 164.812,385.687 165.537 M135.479 166.384 C 135.094 167.070,134.808 168.904,135.141 168.550 C 135.532 168.135,136.088 166.102,135.811 166.102 C 135.716 166.102,135.566 166.229,135.479 166.384 M25.235 170.599 C 25.235 171.440,25.405 172.128,25.612 172.128 C 25.819 172.128,25.989 171.545,25.989 170.832 C 25.989 170.119,25.819 169.431,25.612 169.303 C 25.385 169.163,25.235 169.676,25.235 170.599 M386.528 170.998 C 386.528 171.723,386.606 172.020,386.700 171.657 C 386.795 171.295,386.795 170.702,386.700 170.339 C 386.606 169.976,386.528 170.273,386.528 170.998 M133.551 173.684 C 133.284 174.897,133.226 175.601,133.339 176.271 C 133.391 176.582,133.556 175.989,133.706 174.953 C 133.990 172.982,133.888 172.149,133.551 173.684 M24.482 178.132 C 24.482 179.363,24.652 180.475,24.859 180.603 C 25.095 180.749,25.235 179.916,25.235 178.365 C 25.235 176.969,25.072 175.895,24.859 175.895 C 24.650 175.895,24.482 176.892,24.482 178.132 M386.817 178.154 C 386.817 179.190,386.987 180.038,387.194 180.038 C 387.401 180.038,387.571 179.190,387.571 178.154 C 387.571 177.119,387.401 176.271,387.194 176.271 C 386.987 176.271,386.817 177.119,386.817 178.154 M132.423 180.364 C 132.045 180.975,132.016 198.053,132.393 197.676 C 132.564 197.505,132.865 180.037,132.696 180.037 C 132.657 180.038,132.534 180.185,132.423 180.364 M24.482 199.812 C 24.482 201.193,24.646 202.260,24.859 202.260 C 25.071 202.260,25.235 201.193,25.235 199.812 C 25.235 198.431,25.071 197.363,24.859 197.363 C 24.646 197.363,24.482 198.431,24.482 199.812 M386.817 199.601 C 386.817 200.649,386.987 201.507,387.194 201.507 C 387.401 201.507,387.571 200.754,387.571 199.834 C 387.571 198.914,387.401 198.056,387.194 197.928 C 386.962 197.785,386.817 198.427,386.817 199.601 M133.086 202.248 C 133.222 202.928,133.333 203.769,133.333 204.118 C 133.333 204.467,133.597 205.081,133.919 205.484 C 134.485 206.190,134.491 206.187,134.107 205.392 C 133.889 204.940,133.710 203.890,133.710 203.060 C 133.710 202.230,133.514 201.430,133.275 201.282 C 132.962 201.089,132.909 201.361,133.086 202.248 M25.235 207.179 C 25.235 208.102,25.385 208.615,25.612 208.475 C 25.819 208.347,25.989 207.659,25.989 206.946 C 25.989 206.233,25.819 205.650,25.612 205.650 C 25.405 205.650,25.235 206.338,25.235 207.179 M135.050 210.734 C 135.195 211.356,135.473 212.034,135.669 212.241 C 135.892 212.478,135.926 212.200,135.760 211.488 C 135.615 210.866,135.336 210.188,135.141 209.981 C 134.918 209.744,134.884 210.023,135.050 210.734 M25.612 212.784 C 25.612 213.393,25.782 213.996,25.989 214.124 C 26.213 214.263,26.365 213.814,26.365 213.017 C 26.365 212.279,26.196 211.676,25.989 211.676 C 25.782 211.676,25.612 212.175,25.612 212.784 M385.687 212.618 C 385.687 213.136,385.857 213.559,386.064 213.559 C 386.271 213.559,386.441 213.136,386.441 212.618 C 386.441 212.100,386.271 211.676,386.064 211.676 C 385.857 211.676,385.687 212.100,385.687 212.618 M136.161 213.936 C 136.608 215.457,137.146 216.174,136.868 214.878 C 136.735 214.256,136.459 213.578,136.256 213.371 C 136.012 213.124,135.980 213.317,136.161 213.936 M26.365 217.326 C 26.365 217.947,26.535 218.456,26.742 218.456 C 26.949 218.456,27.119 217.947,27.119 217.326 C 27.119 216.704,26.949 216.196,26.742 216.196 C 26.535 216.196,26.365 216.704,26.365 217.326 M384.940 216.667 C 384.953 217.742,385.676 218.292,385.682 217.232 C 385.685 216.662,385.518 216.196,385.311 216.196 C 385.104 216.196,384.937 216.408,384.940 216.667 M138.139 218.904 C 138.382 219.833,140.101 222.956,140.108 222.481 C 140.114 222.112,138.228 218.079,138.049 218.079 C 137.980 218.079,138.021 218.451,138.139 218.904 M140.121 223.258 C 140.126 223.413,140.477 223.964,140.902 224.482 C 141.328 225.000,141.578 225.169,141.459 224.859 C 141.341 224.548,141.139 223.997,141.011 223.635 C 140.783 222.989,140.105 222.701,140.121 223.258 M27.495 224.294 C 27.495 224.812,27.665 225.235,27.872 225.235 C 28.079 225.235,28.249 224.812,28.249 224.294 C 28.249 223.776,28.079 223.352,27.872 223.352 C 27.665 223.352,27.495 223.776,27.495 224.294 M383.804 223.917 C 383.804 224.228,383.974 224.482,384.181 224.482 C 384.388 224.482,384.557 224.228,384.557 223.917 C 384.557 223.606,384.388 223.352,384.181 223.352 C 383.974 223.352,383.804 223.606,383.804 223.917 M142.613 227.307 C 143.484 228.794,143.503 228.816,143.503 228.353 C 143.503 228.134,143.154 227.555,142.727 227.066 L 141.952 226.177 142.613 227.307 M382.674 229.944 C 382.674 230.254,382.844 230.508,383.051 230.508 C 383.258 230.508,383.427 230.254,383.427 229.944 C 383.427 229.633,383.258 229.379,383.051 229.379 C 382.844 229.379,382.674 229.633,382.674 229.944 M29.379 232.414 C 29.379 232.840,29.548 233.085,29.755 232.957 C 29.962 232.829,30.132 232.480,30.132 232.181 C 30.132 231.883,29.962 231.638,29.755 231.638 C 29.548 231.638,29.379 231.987,29.379 232.414 M147.269 234.342 C 147.269 234.642,147.799 235.385,148.447 235.994 C 149.095 236.602,150.281 237.920,151.084 238.923 C 151.886 239.925,152.542 240.575,152.542 240.365 C 152.542 240.156,151.729 239.082,150.736 237.978 C 149.742 236.873,148.555 235.481,148.099 234.883 C 147.624 234.261,147.269 234.030,147.269 234.342 M380.791 237.310 C 380.791 237.737,380.960 237.981,381.168 237.853 C 381.375 237.725,381.544 237.376,381.544 237.078 C 381.544 236.779,381.375 236.535,381.168 236.535 C 380.960 236.535,380.791 236.884,380.791 237.310 M31.638 241.221 C 31.638 241.519,31.808 241.868,32.015 241.996 C 32.222 242.124,32.392 241.880,32.392 241.453 C 32.392 241.027,32.222 240.678,32.015 240.678 C 31.808 240.678,31.638 240.922,31.638 241.221 M379.661 241.453 C 379.661 241.880,379.831 242.124,380.038 241.996 C 380.245 241.868,380.414 241.519,380.414 241.221 C 380.414 240.922,380.245 240.678,380.038 240.678 C 379.831 240.678,379.661 241.027,379.661 241.453 M156.880 244.614 C 158.534 246.158,160.056 247.424,160.264 247.427 C 160.471 247.431,160.132 246.994,159.510 246.456 C 158.889 245.918,157.485 244.652,156.392 243.643 C 155.298 242.634,154.284 241.808,154.138 241.808 C 153.993 241.808,155.227 243.071,156.880 244.614 M163.103 249.702 C 163.820 250.315,164.570 250.824,164.769 250.832 C 164.969 250.841,164.545 250.346,163.828 249.733 C 163.110 249.120,162.360 248.611,162.161 248.603 C 161.962 248.594,162.386 249.089,163.103 249.702 M165.348 250.984 C 165.348 251.088,165.857 251.535,166.478 251.977 C 167.100 252.420,167.608 252.697,167.608 252.594 C 167.608 252.490,167.100 252.043,166.478 251.601 C 165.857 251.158,165.348 250.881,165.348 250.984 M35.405 252.166 C 35.405 252.476,35.574 252.731,35.782 252.731 C 35.989 252.731,36.158 252.476,36.158 252.166 C 36.158 251.855,35.989 251.601,35.782 251.601 C 35.574 251.601,35.405 251.855,35.405 252.166 M172.294 255.198 C 173.104 255.803,173.793 255.928,173.474 255.413 C 173.362 255.231,172.886 254.985,172.416 254.866 C 171.593 254.659,171.589 254.671,172.294 255.198 M174.576 256.497 C 175.613 256.943,175.982 256.943,175.706 256.497 C 175.578 256.290,175.102 256.132,174.648 256.147 C 173.853 256.173,173.850 256.185,174.576 256.497 M178.408 258.008 C 178.926 258.487,180.535 258.880,180.279 258.466 C 180.152 258.261,179.610 258.010,179.073 257.907 C 178.536 257.805,178.237 257.850,178.408 258.008 M181.356 259.134 C 181.484 259.341,181.960 259.498,182.414 259.484 C 183.210 259.458,183.212 259.446,182.486 259.134 C 181.449 258.688,181.081 258.688,181.356 259.134 M187.194 260.966 C 187.964 261.409,190.793 261.821,190.363 261.428 C 190.174 261.255,189.256 261.007,188.324 260.877 C 187.307 260.736,186.855 260.772,187.194 260.966 M192.727 262.152 C 192.895 262.303,194.134 262.523,195.480 262.642 C 196.851 262.762,197.597 262.723,197.175 262.554 C 196.167 262.149,192.341 261.803,192.727 262.152 M42.185 267.867 C 42.185 268.192,42.439 268.669,42.750 268.927 C 43.468 269.523,43.461 268.964,42.738 268.007 C 42.295 267.422,42.185 267.394,42.185 267.867 M58.380 295.597 C 58.380 295.799,58.649 296.068,58.977 296.193 C 59.344 296.334,59.516 296.250,59.424 295.975 C 59.236 295.412,58.380 295.102,58.380 295.597 M60.264 297.882 C 60.264 298.064,60.518 298.424,60.829 298.682 C 61.442 299.191,61.519 299.069,61.165 298.148 C 60.923 297.517,60.264 297.323,60.264 297.882 M62.147 300.350 C 62.147 300.681,63.346 301.695,63.738 301.695 C 63.962 301.695,63.755 301.356,63.277 300.942 C 62.405 300.185,62.147 300.050,62.147 300.350 M65.159 304.142 C 65.644 304.659,66.125 304.999,66.226 304.897 C 66.476 304.647,65.140 303.202,64.659 303.202 C 64.448 303.202,64.673 303.625,65.159 304.142 M67.420 306.775 C 67.420 307.110,68.711 308.475,69.028 308.475 C 69.410 308.475,68.096 306.620,67.702 306.603 C 67.547 306.597,67.420 306.674,67.420 306.775 M343.571 307.536 C 343.122 308.052,342.897 308.475,343.070 308.475 C 343.501 308.475,344.799 307.009,344.570 306.780 C 344.470 306.679,344.020 307.019,343.571 307.536 M70.451 310.640 C 70.460 310.796,70.900 311.262,71.427 311.676 C 72.439 312.471,72.527 312.558,74.038 314.260 C 74.564 314.853,75.100 315.233,75.229 315.104 C 75.357 314.975,74.425 313.855,73.157 312.614 C 70.916 310.421,70.414 310.055,70.451 310.640 M338.968 312.563 C 337.959 313.619,337.329 314.501,337.584 314.501 C 337.811 314.501,339.507 312.902,340.081 312.147 C 340.850 311.135,340.045 311.436,338.968 312.563 M79.473 319.568 C 79.473 319.913,82.974 323.178,83.152 323.000 C 83.254 322.898,82.546 322.046,81.579 321.106 C 79.920 319.494,79.473 319.168,79.473 319.568 M329.755 321.887 C 329.134 322.594,328.555 323.256,328.468 323.357 C 328.382 323.458,328.398 323.540,328.505 323.540 C 328.746 323.540,331.450 320.930,331.450 320.697 C 331.450 320.249,330.780 320.719,329.755 321.887 M324.103 326.933 C 323.727 327.348,323.502 327.771,323.603 327.871 C 323.704 327.972,324.153 327.632,324.602 327.116 C 325.569 326.005,325.099 325.832,324.103 326.933 M87.382 326.742 C 87.382 327.098,88.952 328.500,89.140 328.311 C 89.244 328.208,88.975 327.770,88.544 327.338 C 87.774 326.569,87.382 326.368,87.382 326.742 M91.217 330.129 C 91.666 330.645,92.116 330.985,92.216 330.885 C 92.445 330.656,91.147 329.190,90.716 329.190 C 90.543 329.190,90.768 329.613,91.217 330.129 M93.409 331.638 C 93.409 331.995,94.978 333.396,95.166 333.208 C 95.270 333.104,95.002 332.666,94.570 332.235 C 93.800 331.465,93.409 331.264,93.409 331.638 M98.918 335.892 C 98.815 336.059,99.058 336.401,99.459 336.651 C 100.316 337.186,100.419 336.900,99.647 336.128 C 99.350 335.831,99.022 335.724,98.918 335.892 M103.202 338.891 C 103.202 339.098,103.456 339.478,103.766 339.736 C 104.082 339.998,104.331 340.039,104.331 339.829 C 104.331 339.621,104.077 339.241,103.766 338.983 C 103.451 338.721,103.202 338.681,103.202 338.891 M112.854 344.931 C 112.751 345.098,112.994 345.440,113.395 345.691 C 114.252 346.225,114.355 345.939,113.583 345.168 C 113.286 344.870,112.958 344.764,112.854 344.931 M295.390 347.101 C 295.133 347.379,295.048 347.682,295.201 347.775 C 295.355 347.868,295.690 347.716,295.947 347.438 C 296.204 347.160,296.289 346.857,296.136 346.764 C 295.982 346.671,295.647 346.823,295.390 347.101 M268.550 359.699 C 268.550 359.906,268.804 360.075,269.115 360.075 C 269.426 360.075,269.680 359.906,269.680 359.699 C 269.680 359.492,269.426 359.322,269.115 359.322 C 268.804 359.322,268.550 359.492,268.550 359.699 M155.179 363.842 C 155.179 364.049,155.433 364.218,155.744 364.218 C 156.055 364.218,156.309 364.049,156.309 363.842 C 156.309 363.635,156.055 363.465,155.744 363.465 C 155.433 363.465,155.179 363.635,155.179 363.842 M161.770 365.725 C 161.898 365.932,162.247 366.102,162.546 366.102 C 162.844 366.102,163.089 365.932,163.089 365.725 C 163.089 365.518,162.740 365.348,162.313 365.348 C 161.886 365.348,161.642 365.518,161.770 365.725 M167.232 366.855 C 167.232 367.062,167.486 367.232,167.797 367.232 C 168.107 367.232,168.362 367.062,168.362 366.855 C 168.362 366.648,168.107 366.478,167.797 366.478 C 167.486 366.478,167.232 366.648,167.232 366.855 M169.658 367.573 C 169.774 367.761,170.208 367.826,170.622 367.717 C 171.658 367.446,171.565 367.232,170.411 367.232 C 169.881 367.232,169.542 367.385,169.658 367.573 M176.271 368.738 C 176.271 368.945,176.695 369.115,177.213 369.115 C 177.731 369.115,178.154 368.945,178.154 368.738 C 178.154 368.531,177.731 368.362,177.213 368.362 C 176.695 368.362,176.271 368.531,176.271 368.738 M233.522 368.738 C 233.522 368.945,233.776 369.115,234.087 369.115 C 234.397 369.115,234.652 368.945,234.652 368.738 C 234.652 368.531,234.397 368.362,234.087 368.362 C 233.776 368.362,233.522 368.531,233.522 368.738 M181.356 369.492 C 181.484 369.699,181.823 369.868,182.109 369.868 C 182.396 369.868,182.734 369.699,182.863 369.492 C 182.995 369.277,182.671 369.115,182.109 369.115 C 181.548 369.115,181.223 369.277,181.356 369.492 M229.379 369.492 C 229.379 369.699,229.623 369.868,229.921 369.868 C 230.220 369.868,230.569 369.699,230.697 369.492 C 230.825 369.284,230.581 369.115,230.154 369.115 C 229.728 369.115,229.379 369.284,229.379 369.492 M185.311 369.868 C 185.311 370.075,185.989 370.245,186.817 370.245 C 187.646 370.245,188.324 370.075,188.324 369.868 C 188.324 369.661,187.646 369.492,186.817 369.492 C 185.989 369.492,185.311 369.661,185.311 369.868 M224.482 369.868 C 224.482 370.075,224.736 370.245,225.047 370.245 C 225.358 370.245,225.612 370.075,225.612 369.868 C 225.612 369.661,225.358 369.492,225.047 369.492 C 224.736 369.492,224.482 369.661,224.482 369.868 M190.737 370.565 C 191.028 371.035,195.480 371.099,195.480 370.633 C 195.480 370.406,194.454 370.245,193.010 370.245 C 191.651 370.245,190.628 370.389,190.737 370.565 M214.689 370.621 C 214.689 370.829,215.621 370.998,216.761 370.998 C 217.900 370.998,218.832 370.829,218.832 370.621 C 218.832 370.414,217.900 370.245,216.761 370.245 C 215.621 370.245,214.689 370.414,214.689 370.621 " stroke="none" fill="#94e4e4" fill-rule="evenodd"></path><path id="path4" d="M26.829 159.322 C 26.829 160.047,26.907 160.344,27.002 159.981 C 27.096 159.619,27.096 159.025,27.002 158.663 C 26.907 158.300,26.829 158.597,26.829 159.322 " stroke="none" fill="#60f8e0" fill-rule="evenodd"></path></g></svg>